<svg width="16" height="30" viewBox="0 0 16 30" fill="none" xmlns="http://www.w3.org/2000/svg">
<path fill-rule="evenodd" clip-rule="evenodd" d="M9.33333 1.66634C9.33333 0.929962 8.73638 0.333008 8 0.333008C7.26362 0.333008 6.66667 0.929962 6.66667 1.66634V2.99967C2.98477 2.99967 0 5.98444 0 9.66634C0 13.3482 2.98477 16.333 6.66667 16.333V24.333C4.45753 24.333 2.66667 22.5421 2.66667 20.333C2.66667 19.5966 2.06971 18.9997 1.33333 18.9997C0.596954 18.9997 0 19.5966 0 20.333C0 24.0149 2.98477 26.9997 6.66667 26.9997L6.66667 28.333C6.66667 29.0694 7.26362 29.6663 8 29.6663C8.73638 29.6663 9.33333 29.0694 9.33333 28.333L9.33333 26.9997C13.0152 26.9997 16 24.0149 16 20.333C16 16.6511 13.0152 13.6663 9.33333 13.6663V5.66634C11.5425 5.66634 13.3333 7.4572 13.3333 9.66634C13.3333 10.4027 13.9303 10.9997 14.6667 10.9997C15.403 10.9997 16 10.4027 16 9.66634C16 5.98444 13.0152 2.99967 9.33333 2.99967V1.66634ZM13.3333 20.333C13.3333 22.5421 11.5425 24.333 9.33333 24.333V16.333C11.5425 16.333 13.3333 18.1239 13.3333 20.333ZM2.66667 9.66634C2.66667 7.4572 4.45753 5.66634 6.66667 5.66634V13.6663C4.45753 13.6663 2.66667 11.8755 2.66667 9.66634Z" fill="#437EF7"/>
</svg>
