<svg width="23" height="28" viewBox="0 0 23 28" fill="none" xmlns="http://www.w3.org/2000/svg">
<path d="M16.7977 11.5791C17.0357 11.817 17.2674 12.0487 17.4476 12.261C17.6455 12.4941 17.8583 12.79 17.9838 13.1763C18.1578 13.7119 18.1578 14.2888 17.9838 14.8244C17.8583 15.2107 17.6455 15.5065 17.4476 15.7396C17.2674 15.9519 17.0357 16.1836 16.7977 16.4215L14.2761 18.9431C13.7554 19.4638 12.9112 19.4638 12.3905 18.9431C11.8698 18.4224 11.8698 17.5782 12.3905 17.0575L14.1143 15.3337H1.33333C0.596954 15.3337 0 14.7367 0 14.0003C0 13.2639 0.596953 12.667 1.33333 12.667H14.1143L12.3905 10.9431C11.8698 10.4224 11.8698 9.57821 12.3905 9.05751C12.9112 8.53682 13.7554 8.53682 14.2761 9.05751L16.7977 11.5791Z" fill="#437EF7"/>
<path d="M6.66667 4.93366C6.66667 3.44019 6.66667 2.69345 6.95732 2.12302C7.21298 1.62125 7.62093 1.2133 8.12269 0.957641C8.69312 0.666992 9.43986 0.666992 10.9333 0.666992H18.4C19.8935 0.666992 20.6402 0.666992 21.2106 0.957641C21.7124 1.2133 22.1204 1.62125 22.376 2.12302C22.6667 2.69345 22.6667 3.44019 22.6667 4.93366V23.067C22.6667 24.5605 22.6667 25.3072 22.376 25.8776C22.1204 26.3794 21.7124 26.7873 21.2106 27.043C20.6402 27.3337 19.8935 27.3337 18.4 27.3337H10.9333C9.43986 27.3337 8.69312 27.3337 8.12269 27.043C7.62093 26.7873 7.21298 26.3794 6.95732 25.8776C6.66667 25.3072 6.66667 24.5605 6.66667 23.067V18.0003H9.33329C9.33329 19.024 9.72381 20.0477 10.5049 20.8288C12.067 22.3909 14.5996 22.3909 16.1617 20.8288L18.7149 18.2756C18.9289 18.0618 19.2282 17.7627 19.4805 17.4655C19.7863 17.1052 20.2426 16.5021 20.52 15.6484C20.868 14.5773 20.868 13.4234 20.52 12.3522C20.2426 11.4986 19.7863 10.8954 19.4805 10.5352C19.2281 10.2379 18.9289 9.93886 18.7149 9.72505L16.1617 7.1719C14.5996 5.6098 12.067 5.6098 10.5049 7.1719C9.72381 7.95295 9.33328 8.97664 9.33328 10.0003H6.66667V4.93366Z" fill="#437EF7"/>
</svg>
