<svg width="24" height="26" viewBox="0 0 24 26" fill="none" xmlns="http://www.w3.org/2000/svg">
<path d="M11.0397 0.235034C11.6442 -0.0783452 12.3558 -0.0783441 12.9604 0.235033L22.813 5.34209C24.3957 6.16253 24.3957 8.50414 22.813 9.32458L12.9604 14.4316C12.3558 14.745 11.6442 14.745 11.0397 14.4316L1.18714 9.32458C-0.395649 8.50414 -0.395655 6.16253 1.18714 5.34209L11.0397 0.235034Z" fill="#437EF7"/>
<path d="M1.9332 12.1425C1.27554 11.8113 0.473856 12.0759 0.142584 12.7335C-0.188689 13.3912 0.0758985 14.1929 0.733556 14.5241L11.1021 19.7469C11.6671 20.0315 12.333 20.0315 12.898 19.7469L23.2665 14.5241C23.9242 14.1929 24.1888 13.3912 23.8575 12.7335C23.5262 12.0759 22.7245 11.8113 22.0669 12.1425L12 17.2134L1.9332 12.1425Z" fill="#437EF7"/>
<path d="M1.9332 17.5155C1.27554 17.1842 0.473856 17.4488 0.142584 18.1065C-0.188689 18.7641 0.0758985 19.5658 0.733556 19.8971L11.1021 25.1199C11.6671 25.4045 12.333 25.4045 12.898 25.1199L23.2665 19.8971C23.9242 19.5658 24.1888 18.7641 23.8575 18.1065C23.5262 17.4488 22.7245 17.1842 22.0669 17.5155L12 22.5863L1.9332 17.5155Z" fill="#437EF7"/>
</svg>
