<svg width="24" height="24" viewBox="0 0 24 24" fill="none" xmlns="http://www.w3.org/2000/svg">
<path d="M13.6652 3.07822L15.3167 6.56396C15.5874 7.13459 16.1101 7.53007 16.7149 7.62167L20.4084 8.18071C21.9312 8.41113 22.5393 10.3599 21.4372 11.4787L18.7638 14.1916C18.3263 14.6358 18.1266 15.2759 18.2299 15.9032L18.8607 19.7343C19.1211 21.3139 17.529 22.5182 16.1674 21.7727L12.8637 19.9649C12.3228 19.6686 11.6765 19.6686 11.1356 19.9649L7.83198 21.7738C6.47035 22.5194 4.87819 21.3137 5.1386 19.7355L5.76947 15.9044C5.8732 15.2768 5.67337 14.6362 5.23556 14.1916L2.56278 11.4784C1.46072 10.3596 2.06885 8.41082 3.59164 8.1804L7.28515 7.62137C7.88994 7.52975 8.41258 7.13424 8.68328 6.56365L10.3342 3.07827C11.016 1.64061 12.9834 1.64056 13.6652 3.07822Z" fill="#FFAE43"/>
</svg>
