<svg width="23" height="30" viewBox="0 0 23 30" fill="none" xmlns="http://www.w3.org/2000/svg">
<path d="M5.33333 8.33301C5.33333 5.38749 7.72115 2.99967 10.6667 2.99967C13.6122 2.99967 16 5.38749 16 8.33301C16 9.06939 16.597 9.66634 17.3333 9.66634C18.0697 9.66634 18.6667 9.06939 18.6667 8.33301C18.6667 3.91473 15.0849 0.333008 10.6667 0.333008C6.24839 0.333008 2.66667 3.91473 2.66667 8.33301C2.66667 9.46832 2.90396 10.5517 3.33292 11.5335C3.62775 12.2083 4.41377 12.5163 5.08855 12.2215C5.76334 11.9267 6.07135 11.1406 5.77653 10.4658C5.4919 9.8144 5.33333 9.09398 5.33333 8.33301Z" fill="#437EF7"/>
<path d="M22.57 18.3573L20.0476 29.6663L8.00315 29.6663L7.17576 27.1933C6.60383 25.4839 5.37372 24.0708 3.75604 23.2649L1.48919 22.1357C0.290405 21.5385 -0.285214 20.1539 0.138621 18.8871C0.656906 17.338 2.43215 16.6054 3.89808 17.3357L8.00315 19.3806L8 8.33301C8 6.91285 9.24124 5.66634 10.6667 5.66634C12.0921 5.66634 13.3333 6.81761 13.3333 8.23777V12.333L19.3109 13.544C21.5813 13.921 23.0694 16.1187 22.57 18.3573Z" fill="#437EF7"/>
</svg>
