<svg width="24" height="25" viewBox="0 0 24 25" fill="none" xmlns="http://www.w3.org/2000/svg">
<path d="M15.8976 6.45073L13.1477 1.6638C12.6371 0.774987 11.3563 0.770733 10.8398 1.65613L7.93802 6.63063C7.55367 7.28951 6.90557 7.75226 6.15759 7.90186L2.19263 8.69485C1.16572 8.90023 0.765577 10.155 1.484 10.917L4.35177 13.9585C4.965 14.6089 5.21157 15.5233 5.00844 16.3939L3.7104 21.9569C3.44357 23.1005 4.67836 24.0056 5.68859 23.4069L10.6409 20.4722C11.4791 19.9755 12.5216 19.9755 13.3598 20.4722L18.3121 23.4069C19.3223 24.0056 20.5571 23.1005 20.2903 21.9569L18.9809 16.3451C18.7841 15.5016 19.0092 14.615 19.5847 13.9676L22.456 10.7373C23.1401 9.96771 22.7307 8.74604 21.721 8.54409L17.6869 7.73728C16.9329 7.58647 16.2806 7.11751 15.8976 6.45073Z" stroke="#437EF7" stroke-width="2" stroke-miterlimit="10"/>
</svg>
