<svg width="959" height="178" viewBox="0 0 959 178" fill="none" xmlns="http://www.w3.org/2000/svg">
<path fill-rule="evenodd" clip-rule="evenodd" d="M68.2204 126.978C101.972 125.485 109.671 114.835 154.081 79.1594C198.492 43.4834 214.825 59.2355 247.336 82.9113C279.846 106.587 275.29 90.5723 312.063 91.94C348.835 93.3077 373.094 162.774 430.281 165.239C487.467 167.704 490.228 0.995964 527.457 0.0107596C564.686 -0.974445 556.851 66.0233 583.663 67.2828C610.475 68.5423 598.44 158.045 656.096 161.364C713.752 164.683 717.561 60.9466 760.971 59.0535C804.381 57.1603 821.572 196.14 873.487 141.077C925.402 86.0133 952.214 158.928 952.214 158.928L959 178H0.00538279C0.00538279 178 44.2068 128.041 68.2204 126.978Z" fill="#5A9CFE"/>
<path fill-rule="evenodd" clip-rule="evenodd" d="M890.78 161.948C857.028 161.478 849.329 158.128 804.919 146.904C760.508 135.68 744.175 140.636 711.664 148.084C679.154 155.533 683.71 150.495 646.937 150.925C610.165 151.355 585.906 173.21 528.719 173.985C471.533 174.761 468.772 122.313 431.543 122.003C394.314 121.693 402.149 142.771 375.337 143.168C348.525 143.564 360.56 171.722 302.904 172.766C245.248 173.81 241.439 141.174 198.029 140.579C154.619 139.983 137.428 183.707 85.5131 166.384C33.5981 149.06 11.6718 171.131 11.6718 171.131L0 178H958.995C958.995 178 914.793 162.283 890.78 161.948Z" fill="#FFC107"/>
</svg>
