<svg width="220" height="220" viewBox="0 0 220 220" fill="none" xmlns="http://www.w3.org/2000/svg">
<path fill-rule="evenodd" clip-rule="evenodd" d="M110.461 220C170.751 220 220 170.751 220 110.461C220 49.3976 170.899 0 110.461 0C49.2487 0 0 49.2487 0 110.461C0 170.899 49.3976 220 110.461 220ZM110.461 211.33C54.1743 211.33 8.66995 166.099 8.66995 110.461C8.66995 54.037 54.037 8.66995 110.461 8.66995C166.099 8.66995 211.33 54.1743 211.33 110.461C211.33 165.963 165.963 211.33 110.461 211.33ZM109.425 195.192C156.418 195.192 194.801 156.809 194.801 109.816C194.801 62.2278 156.533 23.7282 109.425 23.7282C61.721 23.7282 23.3375 62.1117 23.3375 109.816C23.3375 156.924 61.8371 195.192 109.425 195.192ZM109.425 186.51C66.6202 186.51 32.0192 152.117 32.0192 109.816C32.0192 66.9065 66.5158 32.4099 109.425 32.4099C151.727 32.4099 186.12 67.0109 186.12 109.816C186.12 152.014 151.623 186.51 109.425 186.51ZM170.649 109.711C170.649 143.469 143.08 171.038 109.322 171.038C75.1468 171.038 47.4942 143.552 47.4942 109.711C47.4942 75.4523 75.0634 47.8831 109.322 47.8831C143.163 47.8831 170.649 75.5357 170.649 109.711ZM56.1367 109.711C56.1367 138.767 79.9082 162.396 109.322 162.396C138.307 162.396 162.007 138.696 162.007 109.711C162.007 80.2971 138.378 56.5256 109.322 56.5256C79.8365 56.5256 56.1367 80.2254 56.1367 109.711Z" fill="#F5F5F5"/>
<path fill-rule="evenodd" clip-rule="evenodd" d="M47.4941 109.711C47.4941 143.552 75.1467 171.038 109.322 171.038C143.08 171.038 170.649 143.469 170.649 109.711C170.649 75.5356 143.163 47.8831 109.322 47.8831C106.935 47.8831 105 49.8177 105 52.2043C105 54.5908 106.935 56.5255 109.322 56.5255C138.378 56.5255 162.007 80.2971 162.007 109.711C162.007 138.696 138.307 162.396 109.322 162.396C79.9082 162.396 56.1366 138.767 56.1366 109.711C56.1366 107.324 54.2019 105.389 51.8154 105.389C49.4288 105.389 47.4941 107.324 47.4941 109.711Z" fill="#5A9CFE"/>
<path fill-rule="evenodd" clip-rule="evenodd" d="M23.3374 109.816C23.3374 156.924 61.837 195.192 109.425 195.192C156.418 195.192 194.801 156.809 194.801 109.816C194.801 62.2278 156.533 23.7283 109.425 23.7283C107.027 23.7283 105.084 25.6717 105.084 28.0691C105.084 30.4665 107.027 32.41 109.425 32.41C151.727 32.41 186.119 67.0109 186.119 109.816C186.119 152.014 151.623 186.51 109.425 186.51C66.6201 186.51 32.0191 152.118 32.0191 109.816C32.0191 107.418 30.0756 105.475 27.6783 105.475C25.2809 105.475 23.3374 107.418 23.3374 109.816Z" fill="#59A0FF"/>
<path fill-rule="evenodd" clip-rule="evenodd" d="M45.5048 199.074C64.2264 212.598 86.7672 220 110.462 220C170.751 220 220 170.751 220 110.461C220 49.3976 170.9 0 110.462 0C108.067 0 106.127 1.94083 106.127 4.33498C106.127 6.72912 108.067 8.66995 110.462 8.66995C166.1 8.66995 211.33 54.1743 211.33 110.461C211.33 165.963 165.963 211.33 110.462 211.33C88.6038 211.33 67.8366 204.51 50.5818 192.046C48.6411 190.644 45.9313 191.081 44.5293 193.021C43.1273 194.962 43.5641 197.672 45.5048 199.074Z" fill="#0D6EFD"/>
</svg>
