<svg width="1053" height="420" viewBox="0 0 1053 420" fill="none" xmlns="http://www.w3.org/2000/svg">
<g clip-path="url(#clip0_878_100324)">
<rect width="1053" height="420" rx="6" fill="white"/>
<path d="M469.279 378V369.434H470.275V377.098H474.054V378H469.279ZM478.08 378.117C477.13 378.117 476.38 377.828 475.83 377.25C475.283 376.672 475.009 375.869 475.009 374.842C475.009 373.807 475.263 372.984 475.771 372.375C476.283 371.766 476.968 371.461 477.828 371.461C478.632 371.461 479.269 371.727 479.738 372.258C480.207 372.785 480.441 373.482 480.441 374.35V374.965H476.017C476.037 375.719 476.226 376.291 476.585 376.682C476.949 377.072 477.458 377.268 478.115 377.268C478.806 377.268 479.49 377.123 480.166 376.834V377.701C479.822 377.85 479.496 377.955 479.187 378.018C478.882 378.084 478.513 378.117 478.08 378.117ZM477.816 372.275C477.3 372.275 476.888 372.443 476.58 372.779C476.275 373.115 476.095 373.58 476.041 374.174H479.398C479.398 373.561 479.261 373.092 478.988 372.768C478.714 372.439 478.324 372.275 477.816 372.275ZM487.361 371.578V372.193L486.171 372.334C486.281 372.471 486.378 372.65 486.464 372.873C486.55 373.092 486.593 373.34 486.593 373.617C486.593 374.246 486.378 374.748 485.949 375.123C485.519 375.498 484.929 375.686 484.179 375.686C483.988 375.686 483.808 375.67 483.64 375.639C483.226 375.857 483.019 376.133 483.019 376.465C483.019 376.641 483.091 376.771 483.236 376.857C483.38 376.939 483.628 376.98 483.98 376.98H485.117C485.812 376.98 486.345 377.127 486.716 377.42C487.091 377.713 487.279 378.139 487.279 378.697C487.279 379.408 486.994 379.949 486.423 380.32C485.853 380.695 485.021 380.883 483.927 380.883C483.087 380.883 482.439 380.727 481.982 380.414C481.529 380.102 481.302 379.66 481.302 379.09C481.302 378.699 481.427 378.361 481.677 378.076C481.927 377.791 482.279 377.598 482.732 377.496C482.568 377.422 482.429 377.307 482.316 377.15C482.207 376.994 482.152 376.812 482.152 376.605C482.152 376.371 482.214 376.166 482.339 375.99C482.464 375.814 482.662 375.645 482.931 375.48C482.599 375.344 482.328 375.111 482.117 374.783C481.91 374.455 481.806 374.08 481.806 373.658C481.806 372.955 482.017 372.414 482.439 372.035C482.861 371.652 483.458 371.461 484.232 371.461C484.568 371.461 484.871 371.5 485.14 371.578H487.361ZM482.24 379.078C482.24 379.426 482.386 379.689 482.679 379.869C482.972 380.049 483.392 380.139 483.939 380.139C484.755 380.139 485.359 380.016 485.75 379.77C486.144 379.527 486.341 379.197 486.341 378.779C486.341 378.432 486.234 378.189 486.019 378.053C485.804 377.92 485.4 377.854 484.806 377.854H483.64C483.199 377.854 482.855 377.959 482.609 378.17C482.363 378.381 482.24 378.684 482.24 379.078ZM482.767 373.635C482.767 374.084 482.894 374.424 483.148 374.654C483.402 374.885 483.755 375 484.208 375C485.158 375 485.632 374.539 485.632 373.617C485.632 372.652 485.152 372.17 484.191 372.17C483.734 372.17 483.382 372.293 483.136 372.539C482.89 372.785 482.767 373.15 482.767 373.635ZM491.392 378.117C490.443 378.117 489.693 377.828 489.142 377.25C488.595 376.672 488.322 375.869 488.322 374.842C488.322 373.807 488.576 372.984 489.083 372.375C489.595 371.766 490.281 371.461 491.14 371.461C491.945 371.461 492.582 371.727 493.05 372.258C493.519 372.785 493.753 373.482 493.753 374.35V374.965H489.33C489.349 375.719 489.539 376.291 489.898 376.682C490.261 377.072 490.771 377.268 491.427 377.268C492.119 377.268 492.802 377.123 493.478 376.834V377.701C493.134 377.85 492.808 377.955 492.5 378.018C492.195 378.084 491.826 378.117 491.392 378.117ZM491.128 372.275C490.613 372.275 490.201 372.443 489.892 372.779C489.587 373.115 489.408 373.58 489.353 374.174H492.71C492.71 373.561 492.574 373.092 492.3 372.768C492.027 372.439 491.636 372.275 491.128 372.275ZM499.812 378V373.846C499.812 373.322 499.693 372.932 499.455 372.674C499.216 372.416 498.843 372.287 498.335 372.287C497.664 372.287 497.171 372.469 496.859 372.832C496.546 373.195 496.39 373.795 496.39 374.631V378H495.417V371.578H496.208L496.367 372.457H496.414C496.613 372.141 496.892 371.896 497.251 371.725C497.611 371.549 498.011 371.461 498.453 371.461C499.226 371.461 499.808 371.648 500.199 372.023C500.589 372.395 500.785 372.99 500.785 373.811V378H499.812ZM507.16 377.139H507.107C506.658 377.791 505.986 378.117 505.091 378.117C504.251 378.117 503.597 377.83 503.128 377.256C502.664 376.682 502.431 375.865 502.431 374.807C502.431 373.748 502.666 372.926 503.134 372.34C503.603 371.754 504.255 371.461 505.091 371.461C505.962 371.461 506.63 371.777 507.095 372.41H507.171L507.13 371.947L507.107 371.496V368.883H508.08V378H507.289L507.16 377.139ZM505.214 377.303C505.878 377.303 506.359 377.123 506.656 376.764C506.957 376.4 507.107 375.816 507.107 375.012V374.807C507.107 373.896 506.955 373.248 506.65 372.861C506.349 372.471 505.867 372.275 505.203 372.275C504.632 372.275 504.195 372.498 503.89 372.943C503.589 373.385 503.439 374.01 503.439 374.818C503.439 375.639 503.589 376.258 503.89 376.676C504.191 377.094 504.632 377.303 505.214 377.303Z" fill="#3F3B3B"/>
<path fill-rule="evenodd" clip-rule="evenodd" d="M455.551 377.947C458.064 377.947 460.101 375.944 460.101 373.473C460.101 371.003 458.064 369 455.551 369C453.037 369 451 371.003 451 373.473C451 375.944 453.037 377.947 455.551 377.947Z" fill="#FFC107"/>
<path d="M553.279 378V369.434H554.275V377.098H558.054V378H553.279ZM562.08 378.117C561.13 378.117 560.38 377.828 559.83 377.25C559.283 376.672 559.009 375.869 559.009 374.842C559.009 373.807 559.263 372.984 559.771 372.375C560.283 371.766 560.968 371.461 561.828 371.461C562.632 371.461 563.269 371.727 563.738 372.258C564.207 372.785 564.441 373.482 564.441 374.35V374.965H560.017C560.037 375.719 560.226 376.291 560.585 376.682C560.949 377.072 561.458 377.268 562.115 377.268C562.806 377.268 563.49 377.123 564.166 376.834V377.701C563.822 377.85 563.496 377.955 563.187 378.018C562.882 378.084 562.513 378.117 562.08 378.117ZM561.816 372.275C561.3 372.275 560.888 372.443 560.58 372.779C560.275 373.115 560.095 373.58 560.041 374.174H563.398C563.398 373.561 563.261 373.092 562.988 372.768C562.714 372.439 562.324 372.275 561.816 372.275ZM571.361 371.578V372.193L570.171 372.334C570.281 372.471 570.378 372.65 570.464 372.873C570.55 373.092 570.593 373.34 570.593 373.617C570.593 374.246 570.378 374.748 569.949 375.123C569.519 375.498 568.929 375.686 568.179 375.686C567.988 375.686 567.808 375.67 567.64 375.639C567.226 375.857 567.019 376.133 567.019 376.465C567.019 376.641 567.091 376.771 567.236 376.857C567.38 376.939 567.628 376.98 567.98 376.98H569.117C569.812 376.98 570.345 377.127 570.716 377.42C571.091 377.713 571.279 378.139 571.279 378.697C571.279 379.408 570.994 379.949 570.423 380.32C569.853 380.695 569.021 380.883 567.927 380.883C567.087 380.883 566.439 380.727 565.982 380.414C565.529 380.102 565.302 379.66 565.302 379.09C565.302 378.699 565.427 378.361 565.677 378.076C565.927 377.791 566.279 377.598 566.732 377.496C566.568 377.422 566.429 377.307 566.316 377.15C566.207 376.994 566.152 376.812 566.152 376.605C566.152 376.371 566.214 376.166 566.339 375.99C566.464 375.814 566.662 375.645 566.931 375.48C566.599 375.344 566.328 375.111 566.117 374.783C565.91 374.455 565.806 374.08 565.806 373.658C565.806 372.955 566.017 372.414 566.439 372.035C566.861 371.652 567.458 371.461 568.232 371.461C568.568 371.461 568.871 371.5 569.14 371.578H571.361ZM566.24 379.078C566.24 379.426 566.386 379.689 566.679 379.869C566.972 380.049 567.392 380.139 567.939 380.139C568.755 380.139 569.359 380.016 569.75 379.77C570.144 379.527 570.341 379.197 570.341 378.779C570.341 378.432 570.234 378.189 570.019 378.053C569.804 377.92 569.4 377.854 568.806 377.854H567.64C567.199 377.854 566.855 377.959 566.609 378.17C566.363 378.381 566.24 378.684 566.24 379.078ZM566.767 373.635C566.767 374.084 566.894 374.424 567.148 374.654C567.402 374.885 567.755 375 568.208 375C569.158 375 569.632 374.539 569.632 373.617C569.632 372.652 569.152 372.17 568.191 372.17C567.734 372.17 567.382 372.293 567.136 372.539C566.89 372.785 566.767 373.15 566.767 373.635ZM575.392 378.117C574.443 378.117 573.693 377.828 573.142 377.25C572.595 376.672 572.322 375.869 572.322 374.842C572.322 373.807 572.576 372.984 573.083 372.375C573.595 371.766 574.281 371.461 575.14 371.461C575.945 371.461 576.582 371.727 577.05 372.258C577.519 372.785 577.753 373.482 577.753 374.35V374.965H573.33C573.349 375.719 573.539 376.291 573.898 376.682C574.261 377.072 574.771 377.268 575.427 377.268C576.119 377.268 576.802 377.123 577.478 376.834V377.701C577.134 377.85 576.808 377.955 576.5 378.018C576.195 378.084 575.826 378.117 575.392 378.117ZM575.128 372.275C574.613 372.275 574.201 372.443 573.892 372.779C573.587 373.115 573.408 373.58 573.353 374.174H576.71C576.71 373.561 576.574 373.092 576.3 372.768C576.027 372.439 575.636 372.275 575.128 372.275ZM583.812 378V373.846C583.812 373.322 583.693 372.932 583.455 372.674C583.216 372.416 582.843 372.287 582.335 372.287C581.664 372.287 581.171 372.469 580.859 372.832C580.546 373.195 580.39 373.795 580.39 374.631V378H579.417V371.578H580.208L580.367 372.457H580.414C580.613 372.141 580.892 371.896 581.251 371.725C581.611 371.549 582.011 371.461 582.453 371.461C583.226 371.461 583.808 371.648 584.199 372.023C584.589 372.395 584.785 372.99 584.785 373.811V378H583.812ZM591.16 377.139H591.107C590.658 377.791 589.986 378.117 589.091 378.117C588.251 378.117 587.597 377.83 587.128 377.256C586.664 376.682 586.431 375.865 586.431 374.807C586.431 373.748 586.666 372.926 587.134 372.34C587.603 371.754 588.255 371.461 589.091 371.461C589.962 371.461 590.63 371.777 591.095 372.41H591.171L591.13 371.947L591.107 371.496V368.883H592.08V378H591.289L591.16 377.139ZM589.214 377.303C589.878 377.303 590.359 377.123 590.656 376.764C590.957 376.4 591.107 375.816 591.107 375.012V374.807C591.107 373.896 590.955 373.248 590.65 372.861C590.349 372.471 589.867 372.275 589.203 372.275C588.632 372.275 588.195 372.498 587.89 372.943C587.589 373.385 587.439 374.01 587.439 374.818C587.439 375.639 587.589 376.258 587.89 376.676C588.191 377.094 588.632 377.303 589.214 377.303Z" fill="#3F3B3B"/>
<path fill-rule="evenodd" clip-rule="evenodd" d="M539.551 377.947C542.064 377.947 544.101 375.944 544.101 373.473C544.101 371.003 542.064 369 539.551 369C537.037 369 535 371.003 535 373.473C535 375.944 537.037 377.947 539.551 377.947Z" fill="#5A9CFE"/>
<g clip-path="url(#clip1_878_100324)">
<rect x="69" y="96" width="960" height="1" fill="#EAEAEA"/>
<rect x="69" y="137" width="960" height="1" fill="#EAEAEA"/>
<rect x="69" y="178" width="960" height="1" fill="#EAEAEA"/>
<rect x="69" y="219" width="960" height="1" fill="#EAEAEA"/>
<rect x="69" y="260" width="960" height="1" fill="#EAEAEA"/>
<rect x="69" y="301" width="960" height="1" fill="#EAEAEA"/>
<rect x="70" y="81" width="220" height="1" transform="rotate(90 70 81)" fill="#EAEAEA"/>
</g>
<g clip-path="url(#clip2_878_100324)">
<path d="M73.2988 327.256C72.9316 327.256 72.6426 327.203 72.4316 327.098V326.248C72.709 326.326 72.998 326.365 73.2988 326.365C73.6855 326.365 73.9785 326.248 74.1777 326.014C74.3809 325.779 74.4824 325.441 74.4824 325V316.434H75.4785V324.918C75.4785 325.66 75.291 326.234 74.916 326.641C74.541 327.051 74.002 327.256 73.2988 327.256ZM81.5605 325L81.3672 324.086H81.3203C81 324.488 80.6797 324.762 80.3594 324.906C80.043 325.047 79.6465 325.117 79.1699 325.117C78.5332 325.117 78.0332 324.953 77.6699 324.625C77.3105 324.297 77.1309 323.83 77.1309 323.225C77.1309 321.928 78.168 321.248 80.2422 321.186L81.332 321.15V320.752C81.332 320.248 81.2227 319.877 81.0039 319.639C80.7891 319.396 80.4434 319.275 79.9668 319.275C79.4316 319.275 78.8262 319.439 78.1504 319.768L77.8516 319.023C78.168 318.852 78.5137 318.717 78.8887 318.619C79.2676 318.521 79.6465 318.473 80.0254 318.473C80.791 318.473 81.3574 318.643 81.7246 318.982C82.0957 319.322 82.2812 319.867 82.2812 320.617V325H81.5605ZM79.3633 324.314C79.9688 324.314 80.4434 324.148 80.7871 323.816C81.1348 323.484 81.3086 323.02 81.3086 322.422V321.842L80.3359 321.883C79.5625 321.91 79.0039 322.031 78.6602 322.246C78.3203 322.457 78.1504 322.787 78.1504 323.236C78.1504 323.588 78.2559 323.855 78.4668 324.039C78.6816 324.223 78.9805 324.314 79.3633 324.314ZM88.6855 325V320.846C88.6855 320.322 88.5664 319.932 88.3281 319.674C88.0898 319.416 87.7168 319.287 87.209 319.287C86.5371 319.287 86.0449 319.469 85.7324 319.832C85.4199 320.195 85.2637 320.795 85.2637 321.631V325H84.291V318.578H85.082L85.2402 319.457H85.2871C85.4863 319.141 85.7656 318.896 86.125 318.725C86.4844 318.549 86.8848 318.461 87.3262 318.461C88.0996 318.461 88.6816 318.648 89.0723 319.023C89.4629 319.395 89.6582 319.99 89.6582 320.811V325H88.6855Z" fill="#807E7E"/>
<path d="M159.025 325H158.029V316.434H162.805V317.318H159.025V320.453H162.576V321.338H159.025V325ZM166.795 325.117C165.846 325.117 165.096 324.828 164.545 324.25C163.998 323.672 163.725 322.869 163.725 321.842C163.725 320.807 163.979 319.984 164.486 319.375C164.998 318.766 165.684 318.461 166.543 318.461C167.348 318.461 167.984 318.727 168.453 319.258C168.922 319.785 169.156 320.482 169.156 321.35V321.965H164.732C164.752 322.719 164.941 323.291 165.301 323.682C165.664 324.072 166.174 324.268 166.83 324.268C167.521 324.268 168.205 324.123 168.881 323.834V324.701C168.537 324.85 168.211 324.955 167.902 325.018C167.598 325.084 167.229 325.117 166.795 325.117ZM166.531 319.275C166.016 319.275 165.604 319.443 165.295 319.779C164.99 320.115 164.811 320.58 164.756 321.174H168.113C168.113 320.561 167.977 320.092 167.703 319.768C167.43 319.439 167.039 319.275 166.531 319.275ZM173.809 318.473C174.652 318.473 175.307 318.762 175.771 319.34C176.24 319.914 176.475 320.729 176.475 321.783C176.475 322.838 176.238 323.658 175.766 324.244C175.297 324.826 174.645 325.117 173.809 325.117C173.391 325.117 173.008 325.041 172.66 324.889C172.316 324.732 172.027 324.494 171.793 324.174H171.723L171.518 325H170.82V315.883H171.793V318.098C171.793 318.594 171.777 319.039 171.746 319.434H171.793C172.246 318.793 172.918 318.473 173.809 318.473ZM173.668 319.287C173.004 319.287 172.525 319.479 172.232 319.861C171.939 320.24 171.793 320.881 171.793 321.783C171.793 322.686 171.943 323.332 172.244 323.723C172.545 324.109 173.027 324.303 173.691 324.303C174.289 324.303 174.734 324.086 175.027 323.652C175.32 323.215 175.467 322.588 175.467 321.771C175.467 320.936 175.32 320.312 175.027 319.902C174.734 319.492 174.281 319.287 173.668 319.287Z" fill="#807E7E"/>
<path d="M245.76 325L242.854 317.406H242.807C242.861 318.008 242.889 318.723 242.889 319.551V325H241.969V316.434H243.469L246.182 323.5H246.229L248.965 316.434H250.453V325H249.457V319.48C249.457 318.848 249.484 318.16 249.539 317.418H249.492L246.562 325H245.76ZM256.611 325L256.418 324.086H256.371C256.051 324.488 255.73 324.762 255.41 324.906C255.094 325.047 254.697 325.117 254.221 325.117C253.584 325.117 253.084 324.953 252.721 324.625C252.361 324.297 252.182 323.83 252.182 323.225C252.182 321.928 253.219 321.248 255.293 321.186L256.383 321.15V320.752C256.383 320.248 256.273 319.877 256.055 319.639C255.84 319.396 255.494 319.275 255.018 319.275C254.482 319.275 253.877 319.439 253.201 319.768L252.902 319.023C253.219 318.852 253.564 318.717 253.939 318.619C254.318 318.521 254.697 318.473 255.076 318.473C255.842 318.473 256.408 318.643 256.775 318.982C257.146 319.322 257.332 319.867 257.332 320.617V325H256.611ZM254.414 324.314C255.02 324.314 255.494 324.148 255.838 323.816C256.186 323.484 256.359 323.02 256.359 322.422V321.842L255.387 321.883C254.613 321.91 254.055 322.031 253.711 322.246C253.371 322.457 253.201 322.787 253.201 323.236C253.201 323.588 253.307 323.855 253.518 324.039C253.732 324.223 254.031 324.314 254.414 324.314ZM262.271 318.461C262.557 318.461 262.812 318.484 263.039 318.531L262.904 319.434C262.639 319.375 262.404 319.346 262.201 319.346C261.682 319.346 261.236 319.557 260.865 319.979C260.498 320.4 260.314 320.926 260.314 321.555V325H259.342V318.578H260.145L260.256 319.768H260.303C260.541 319.35 260.828 319.027 261.164 318.801C261.5 318.574 261.869 318.461 262.271 318.461Z" fill="#807E7E"/>
<path d="M333.637 325L332.57 322.275H329.137L328.082 325H327.074L330.461 316.398H331.299L334.668 325H333.637ZM332.26 321.379L331.264 318.725C331.135 318.389 331.002 317.977 330.865 317.488C330.779 317.863 330.656 318.275 330.496 318.725L329.488 321.379H332.26ZM338.688 325.117C338.27 325.117 337.887 325.041 337.539 324.889C337.195 324.732 336.906 324.494 336.672 324.174H336.602C336.648 324.549 336.672 324.904 336.672 325.24V327.883H335.699V318.578H336.49L336.625 319.457H336.672C336.922 319.105 337.213 318.852 337.545 318.695C337.877 318.539 338.258 318.461 338.688 318.461C339.539 318.461 340.195 318.752 340.656 319.334C341.121 319.916 341.354 320.732 341.354 321.783C341.354 322.838 341.117 323.658 340.645 324.244C340.176 324.826 339.523 325.117 338.688 325.117ZM338.547 319.287C337.891 319.287 337.416 319.469 337.123 319.832C336.83 320.195 336.68 320.773 336.672 321.566V321.783C336.672 322.686 336.822 323.332 337.123 323.723C337.424 324.109 337.906 324.303 338.57 324.303C339.125 324.303 339.559 324.078 339.871 323.629C340.188 323.18 340.346 322.561 340.346 321.771C340.346 320.971 340.188 320.357 339.871 319.932C339.559 319.502 339.117 319.287 338.547 319.287ZM345.988 318.461C346.273 318.461 346.529 318.484 346.756 318.531L346.621 319.434C346.355 319.375 346.121 319.346 345.918 319.346C345.398 319.346 344.953 319.557 344.582 319.979C344.215 320.4 344.031 320.926 344.031 321.555V325H343.059V318.578H343.861L343.973 319.768H344.02C344.258 319.35 344.545 319.027 344.881 318.801C345.217 318.574 345.586 318.461 345.988 318.461Z" fill="#807E7E"/>
<path d="M415.186 325L412.279 317.406H412.232C412.287 318.008 412.314 318.723 412.314 319.551V325H411.395V316.434H412.895L415.607 323.5H415.654L418.391 316.434H419.879V325H418.883V319.48C418.883 318.848 418.91 318.16 418.965 317.418H418.918L415.988 325H415.186ZM426.037 325L425.844 324.086H425.797C425.477 324.488 425.156 324.762 424.836 324.906C424.52 325.047 424.123 325.117 423.646 325.117C423.01 325.117 422.51 324.953 422.146 324.625C421.787 324.297 421.607 323.83 421.607 323.225C421.607 321.928 422.645 321.248 424.719 321.186L425.809 321.15V320.752C425.809 320.248 425.699 319.877 425.48 319.639C425.266 319.396 424.92 319.275 424.443 319.275C423.908 319.275 423.303 319.439 422.627 319.768L422.328 319.023C422.645 318.852 422.99 318.717 423.365 318.619C423.744 318.521 424.123 318.473 424.502 318.473C425.268 318.473 425.834 318.643 426.201 318.982C426.572 319.322 426.758 319.867 426.758 320.617V325H426.037ZM423.84 324.314C424.445 324.314 424.92 324.148 425.264 323.816C425.611 323.484 425.785 323.02 425.785 322.422V321.842L424.812 321.883C424.039 321.91 423.48 322.031 423.137 322.246C422.797 322.457 422.627 322.787 422.627 323.236C422.627 323.588 422.732 323.855 422.943 324.039C423.158 324.223 423.457 324.314 423.84 324.314ZM427.748 318.578H428.791L430.197 322.24C430.506 323.076 430.697 323.68 430.771 324.051H430.818C430.869 323.852 430.975 323.512 431.135 323.031C431.299 322.547 431.83 321.062 432.729 318.578H433.771L431.012 325.891C430.738 326.613 430.418 327.125 430.051 327.426C429.688 327.73 429.24 327.883 428.709 327.883C428.412 327.883 428.119 327.85 427.83 327.783V327.004C428.045 327.051 428.285 327.074 428.551 327.074C429.219 327.074 429.695 326.699 429.98 325.949L430.338 325.035L427.748 318.578Z" fill="#807E7E"/>
<path d="M497.953 327.256C497.586 327.256 497.297 327.203 497.086 327.098V326.248C497.363 326.326 497.652 326.365 497.953 326.365C498.34 326.365 498.633 326.248 498.832 326.014C499.035 325.779 499.137 325.441 499.137 325V316.434H500.133V324.918C500.133 325.66 499.945 326.234 499.57 326.641C499.195 327.051 498.656 327.256 497.953 327.256ZM503.18 318.578V322.744C503.18 323.268 503.299 323.658 503.537 323.916C503.775 324.174 504.148 324.303 504.656 324.303C505.328 324.303 505.818 324.119 506.127 323.752C506.439 323.385 506.596 322.785 506.596 321.953V318.578H507.568V325H506.766L506.625 324.139H506.572C506.373 324.455 506.096 324.697 505.74 324.865C505.389 325.033 504.986 325.117 504.533 325.117C503.752 325.117 503.166 324.932 502.775 324.561C502.389 324.189 502.195 323.596 502.195 322.779V318.578H503.18ZM514.031 325V320.846C514.031 320.322 513.912 319.932 513.674 319.674C513.436 319.416 513.062 319.287 512.555 319.287C511.883 319.287 511.391 319.469 511.078 319.832C510.766 320.195 510.609 320.795 510.609 321.631V325H509.637V318.578H510.428L510.586 319.457H510.633C510.832 319.141 511.111 318.896 511.471 318.725C511.83 318.549 512.23 318.461 512.672 318.461C513.445 318.461 514.027 318.648 514.418 319.023C514.809 319.395 515.004 319.99 515.004 320.811V325H514.031Z" fill="#807E7E"/>
<path d="M585.121 327.256C584.754 327.256 584.465 327.203 584.254 327.098V326.248C584.531 326.326 584.82 326.365 585.121 326.365C585.508 326.365 585.801 326.248 586 326.014C586.203 325.779 586.305 325.441 586.305 325V316.434H587.301V324.918C587.301 325.66 587.113 326.234 586.738 326.641C586.363 327.051 585.824 327.256 585.121 327.256ZM590.348 318.578V322.744C590.348 323.268 590.467 323.658 590.705 323.916C590.943 324.174 591.316 324.303 591.824 324.303C592.496 324.303 592.986 324.119 593.295 323.752C593.607 323.385 593.764 322.785 593.764 321.953V318.578H594.736V325H593.934L593.793 324.139H593.74C593.541 324.455 593.264 324.697 592.908 324.865C592.557 325.033 592.154 325.117 591.701 325.117C590.92 325.117 590.334 324.932 589.943 324.561C589.557 324.189 589.363 323.596 589.363 322.779V318.578H590.348ZM597.777 325H596.805V315.883H597.777V325Z" fill="#807E7E"/>
<path d="M672.793 325L671.727 322.275H668.293L667.238 325H666.23L669.617 316.398H670.455L673.824 325H672.793ZM671.416 321.379L670.42 318.725C670.291 318.389 670.158 317.977 670.021 317.488C669.936 317.863 669.812 318.275 669.652 318.725L668.645 321.379H671.416ZM675.77 318.578V322.744C675.77 323.268 675.889 323.658 676.127 323.916C676.365 324.174 676.738 324.303 677.246 324.303C677.918 324.303 678.408 324.119 678.717 323.752C679.029 323.385 679.186 322.785 679.186 321.953V318.578H680.158V325H679.355L679.215 324.139H679.162C678.963 324.455 678.686 324.697 678.33 324.865C677.979 325.033 677.576 325.117 677.123 325.117C676.342 325.117 675.756 324.932 675.365 324.561C674.979 324.189 674.785 323.596 674.785 322.779V318.578H675.77ZM687.482 318.578V319.193L686.293 319.334C686.402 319.471 686.5 319.65 686.586 319.873C686.672 320.092 686.715 320.34 686.715 320.617C686.715 321.246 686.5 321.748 686.07 322.123C685.641 322.498 685.051 322.686 684.301 322.686C684.109 322.686 683.93 322.67 683.762 322.639C683.348 322.857 683.141 323.133 683.141 323.465C683.141 323.641 683.213 323.771 683.357 323.857C683.502 323.939 683.75 323.98 684.102 323.98H685.238C685.934 323.98 686.467 324.127 686.838 324.42C687.213 324.713 687.4 325.139 687.4 325.697C687.4 326.408 687.115 326.949 686.545 327.32C685.975 327.695 685.143 327.883 684.049 327.883C683.209 327.883 682.561 327.727 682.104 327.414C681.65 327.102 681.424 326.66 681.424 326.09C681.424 325.699 681.549 325.361 681.799 325.076C682.049 324.791 682.4 324.598 682.854 324.496C682.689 324.422 682.551 324.307 682.438 324.15C682.328 323.994 682.273 323.812 682.273 323.605C682.273 323.371 682.336 323.166 682.461 322.99C682.586 322.814 682.783 322.645 683.053 322.48C682.721 322.344 682.449 322.111 682.238 321.783C682.031 321.455 681.928 321.08 681.928 320.658C681.928 319.955 682.139 319.414 682.561 319.035C682.982 318.652 683.58 318.461 684.354 318.461C684.689 318.461 684.992 318.5 685.262 318.578H687.482ZM682.361 326.078C682.361 326.426 682.508 326.689 682.801 326.869C683.094 327.049 683.514 327.139 684.061 327.139C684.877 327.139 685.48 327.016 685.871 326.77C686.266 326.527 686.463 326.197 686.463 325.779C686.463 325.432 686.355 325.189 686.141 325.053C685.926 324.92 685.521 324.854 684.928 324.854H683.762C683.32 324.854 682.977 324.959 682.73 325.17C682.484 325.381 682.361 325.684 682.361 326.078ZM682.889 320.635C682.889 321.084 683.016 321.424 683.27 321.654C683.523 321.885 683.877 322 684.33 322C685.279 322 685.754 321.539 685.754 320.617C685.754 319.652 685.273 319.17 684.312 319.17C683.855 319.17 683.504 319.293 683.258 319.539C683.012 319.785 682.889 320.15 682.889 320.635Z" fill="#807E7E"/>
<path d="M757.67 322.721C757.67 323.475 757.396 324.062 756.85 324.484C756.303 324.906 755.561 325.117 754.623 325.117C753.607 325.117 752.826 324.986 752.279 324.725V323.764C752.631 323.912 753.014 324.029 753.428 324.115C753.842 324.201 754.252 324.244 754.658 324.244C755.322 324.244 755.822 324.119 756.158 323.869C756.494 323.615 756.662 323.264 756.662 322.814C756.662 322.518 756.602 322.275 756.48 322.088C756.363 321.896 756.164 321.721 755.883 321.561C755.605 321.4 755.182 321.219 754.611 321.016C753.814 320.73 753.244 320.393 752.9 320.002C752.561 319.611 752.391 319.102 752.391 318.473C752.391 317.812 752.639 317.287 753.135 316.896C753.631 316.506 754.287 316.311 755.104 316.311C755.955 316.311 756.738 316.467 757.453 316.779L757.143 317.646C756.436 317.35 755.748 317.201 755.08 317.201C754.553 317.201 754.141 317.314 753.844 317.541C753.547 317.768 753.398 318.082 753.398 318.484C753.398 318.781 753.453 319.025 753.562 319.217C753.672 319.404 753.855 319.578 754.113 319.738C754.375 319.895 754.773 320.068 755.309 320.26C756.207 320.58 756.824 320.924 757.16 321.291C757.5 321.658 757.67 322.135 757.67 322.721ZM761.988 325.117C761.039 325.117 760.289 324.828 759.738 324.25C759.191 323.672 758.918 322.869 758.918 321.842C758.918 320.807 759.172 319.984 759.68 319.375C760.191 318.766 760.877 318.461 761.736 318.461C762.541 318.461 763.178 318.727 763.646 319.258C764.115 319.785 764.35 320.482 764.35 321.35V321.965H759.926C759.945 322.719 760.135 323.291 760.494 323.682C760.857 324.072 761.367 324.268 762.023 324.268C762.715 324.268 763.398 324.123 764.074 323.834V324.701C763.73 324.85 763.404 324.955 763.096 325.018C762.791 325.084 762.422 325.117 761.988 325.117ZM761.725 319.275C761.209 319.275 760.797 319.443 760.488 319.779C760.184 320.115 760.004 320.58 759.949 321.174H763.307C763.307 320.561 763.17 320.092 762.896 319.768C762.623 319.439 762.232 319.275 761.725 319.275ZM769.002 325.117C768.584 325.117 768.201 325.041 767.854 324.889C767.51 324.732 767.221 324.494 766.986 324.174H766.916C766.963 324.549 766.986 324.904 766.986 325.24V327.883H766.014V318.578H766.805L766.939 319.457H766.986C767.236 319.105 767.527 318.852 767.859 318.695C768.191 318.539 768.572 318.461 769.002 318.461C769.854 318.461 770.51 318.752 770.971 319.334C771.436 319.916 771.668 320.732 771.668 321.783C771.668 322.838 771.432 323.658 770.959 324.244C770.49 324.826 769.838 325.117 769.002 325.117ZM768.861 319.287C768.205 319.287 767.73 319.469 767.438 319.832C767.145 320.195 766.994 320.773 766.986 321.566V321.783C766.986 322.686 767.137 323.332 767.438 323.723C767.738 324.109 768.221 324.303 768.885 324.303C769.439 324.303 769.873 324.078 770.186 323.629C770.502 323.18 770.66 322.561 770.66 321.771C770.66 320.971 770.502 320.357 770.186 319.932C769.873 319.502 769.432 319.287 768.861 319.287Z" fill="#807E7E"/>
<path d="M845.957 320.705C845.957 322.076 845.609 323.154 844.914 323.939C844.223 324.725 843.26 325.117 842.025 325.117C840.764 325.117 839.789 324.732 839.102 323.963C838.418 323.189 838.076 322.1 838.076 320.693C838.076 319.299 838.42 318.219 839.107 317.453C839.795 316.684 840.771 316.299 842.037 316.299C843.268 316.299 844.229 316.689 844.92 317.471C845.611 318.252 845.957 319.33 845.957 320.705ZM839.131 320.705C839.131 321.865 839.377 322.746 839.869 323.348C840.365 323.945 841.084 324.244 842.025 324.244C842.975 324.244 843.691 323.945 844.176 323.348C844.66 322.75 844.902 321.869 844.902 320.705C844.902 319.553 844.66 318.68 844.176 318.086C843.695 317.488 842.982 317.189 842.037 317.189C841.088 317.189 840.365 317.49 839.869 318.092C839.377 318.689 839.131 319.561 839.131 320.705ZM850.293 325.117C849.363 325.117 848.643 324.832 848.131 324.262C847.623 323.688 847.369 322.877 847.369 321.83C847.369 320.756 847.627 319.926 848.143 319.34C848.662 318.754 849.4 318.461 850.357 318.461C850.666 318.461 850.975 318.494 851.283 318.561C851.592 318.627 851.834 318.705 852.01 318.795L851.711 319.621C851.496 319.535 851.262 319.465 851.008 319.41C850.754 319.352 850.529 319.322 850.334 319.322C849.029 319.322 848.377 320.154 848.377 321.818C848.377 322.607 848.535 323.213 848.852 323.635C849.172 324.057 849.645 324.268 850.27 324.268C850.805 324.268 851.354 324.152 851.916 323.922V324.783C851.486 325.006 850.945 325.117 850.293 325.117ZM855.52 324.314C855.691 324.314 855.857 324.303 856.018 324.279C856.178 324.252 856.305 324.225 856.398 324.197V324.941C856.293 324.992 856.137 325.033 855.93 325.064C855.727 325.1 855.543 325.117 855.379 325.117C854.137 325.117 853.516 324.463 853.516 323.154V319.334H852.596V318.865L853.516 318.461L853.926 317.09H854.488V318.578H856.352V319.334H854.488V323.113C854.488 323.5 854.58 323.797 854.764 324.004C854.947 324.211 855.199 324.314 855.52 324.314Z" fill="#807E7E"/>
<path d="M928.713 325H927.576L922.895 317.811H922.848C922.91 318.654 922.941 319.428 922.941 320.131V325H922.021V316.434H923.146L927.816 323.594H927.863C927.855 323.488 927.838 323.15 927.811 322.58C927.783 322.006 927.773 321.596 927.781 321.35V316.434H928.713V325ZM936.465 321.783C936.465 322.83 936.201 323.648 935.674 324.238C935.146 324.824 934.418 325.117 933.488 325.117C932.914 325.117 932.404 324.982 931.959 324.713C931.514 324.443 931.17 324.057 930.928 323.553C930.686 323.049 930.564 322.459 930.564 321.783C930.564 320.736 930.826 319.922 931.35 319.34C931.873 318.754 932.6 318.461 933.529 318.461C934.428 318.461 935.141 318.76 935.668 319.357C936.199 319.955 936.465 320.764 936.465 321.783ZM931.572 321.783C931.572 322.604 931.736 323.229 932.064 323.658C932.393 324.088 932.875 324.303 933.512 324.303C934.148 324.303 934.631 324.09 934.959 323.664C935.291 323.234 935.457 322.607 935.457 321.783C935.457 320.967 935.291 320.348 934.959 319.926C934.631 319.5 934.145 319.287 933.5 319.287C932.863 319.287 932.383 319.496 932.059 319.914C931.734 320.332 931.572 320.955 931.572 321.783ZM939.582 325L937.145 318.578H938.188L939.57 322.387C939.883 323.277 940.066 323.855 940.121 324.121H940.168C940.211 323.914 940.346 323.486 940.572 322.838C940.803 322.186 941.316 320.766 942.113 318.578H943.156L940.719 325H939.582Z" fill="#807E7E"/>
<path d="M1014.41 320.635C1014.41 322.049 1014.03 323.131 1013.26 323.881C1012.49 324.627 1011.39 325 1009.95 325H1007.57V316.434H1010.2C1011.53 316.434 1012.56 316.803 1013.3 317.541C1014.04 318.279 1014.41 319.311 1014.41 320.635ZM1013.36 320.67C1013.36 319.553 1013.07 318.711 1012.51 318.145C1011.95 317.578 1011.12 317.295 1010.02 317.295H1008.57V324.139H1009.78C1010.97 324.139 1011.86 323.848 1012.46 323.266C1013.06 322.68 1013.36 321.814 1013.36 320.67ZM1018.89 325.117C1017.94 325.117 1017.19 324.828 1016.64 324.25C1016.1 323.672 1015.82 322.869 1015.82 321.842C1015.82 320.807 1016.08 319.984 1016.58 319.375C1017.1 318.766 1017.78 318.461 1018.64 318.461C1019.45 318.461 1020.08 318.727 1020.55 319.258C1021.02 319.785 1021.25 320.482 1021.25 321.35V321.965H1016.83C1016.85 322.719 1017.04 323.291 1017.4 323.682C1017.76 324.072 1018.27 324.268 1018.93 324.268C1019.62 324.268 1020.3 324.123 1020.98 323.834V324.701C1020.63 324.85 1020.31 324.955 1020 325.018C1019.7 325.084 1019.33 325.117 1018.89 325.117ZM1018.63 319.275C1018.11 319.275 1017.7 319.443 1017.39 319.779C1017.09 320.115 1016.91 320.58 1016.85 321.174H1020.21C1020.21 320.561 1020.07 320.092 1019.8 319.768C1019.53 319.439 1019.14 319.275 1018.63 319.275ZM1025.48 325.117C1024.55 325.117 1023.83 324.832 1023.32 324.262C1022.81 323.688 1022.56 322.877 1022.56 321.83C1022.56 320.756 1022.82 319.926 1023.33 319.34C1023.85 318.754 1024.59 318.461 1025.55 318.461C1025.86 318.461 1026.17 318.494 1026.47 318.561C1026.78 318.627 1027.03 318.705 1027.2 318.795L1026.9 319.621C1026.69 319.535 1026.45 319.465 1026.2 319.41C1025.95 319.352 1025.72 319.322 1025.53 319.322C1024.22 319.322 1023.57 320.154 1023.57 321.818C1023.57 322.607 1023.73 323.213 1024.04 323.635C1024.36 324.057 1024.84 324.268 1025.46 324.268C1026 324.268 1026.54 324.152 1027.11 323.922V324.783C1026.68 325.006 1026.14 325.117 1025.48 325.117Z" fill="#807E7E"/>
</g>
<g clip-path="url(#clip3_878_100324)">
<path d="M50.3965 301.705C50.3965 303.186 50.1621 304.291 49.6934 305.021C49.2285 305.752 48.5156 306.117 47.5547 306.117C46.6328 306.117 45.9316 305.744 45.4512 304.998C44.9707 304.248 44.7305 303.15 44.7305 301.705C44.7305 300.213 44.9629 299.105 45.4277 298.383C45.8926 297.66 46.6016 297.299 47.5547 297.299C48.4844 297.299 49.1895 297.676 49.6699 298.43C50.1543 299.184 50.3965 300.275 50.3965 301.705ZM45.7148 301.705C45.7148 302.951 45.8613 303.859 46.1543 304.43C46.4473 304.996 46.9141 305.279 47.5547 305.279C48.2031 305.279 48.6719 304.992 48.9609 304.418C49.2539 303.84 49.4004 302.936 49.4004 301.705C49.4004 300.475 49.2539 299.574 48.9609 299.004C48.6719 298.43 48.2031 298.143 47.5547 298.143C46.9141 298.143 46.4473 298.426 46.1543 298.992C45.8613 299.555 45.7148 300.459 45.7148 301.705Z" fill="#807E7E"/>
<path d="M33.6621 259.768C34.5645 259.768 35.2734 259.992 35.7891 260.441C36.3086 260.887 36.5684 261.498 36.5684 262.275C36.5684 263.162 36.2852 263.857 35.7188 264.361C35.1562 264.865 34.3789 265.117 33.3867 265.117C32.4219 265.117 31.6855 264.963 31.1777 264.654V263.717C31.4512 263.893 31.791 264.031 32.1973 264.133C32.6035 264.23 33.0039 264.279 33.3984 264.279C34.0859 264.279 34.6191 264.117 34.998 263.793C35.3809 263.469 35.5723 263 35.5723 262.387C35.5723 261.191 34.8398 260.594 33.375 260.594C33.0039 260.594 32.5078 260.65 31.8867 260.764L31.3828 260.441L31.7051 256.434H35.9648V257.33H32.5371L32.3203 259.902C32.7695 259.812 33.2168 259.768 33.6621 259.768ZM43.5293 260.705C43.5293 262.186 43.2949 263.291 42.8262 264.021C42.3613 264.752 41.6484 265.117 40.6875 265.117C39.7656 265.117 39.0645 264.744 38.584 263.998C38.1035 263.248 37.8633 262.15 37.8633 260.705C37.8633 259.213 38.0957 258.105 38.5605 257.383C39.0254 256.66 39.7344 256.299 40.6875 256.299C41.6172 256.299 42.3223 256.676 42.8027 257.43C43.2871 258.184 43.5293 259.275 43.5293 260.705ZM38.8477 260.705C38.8477 261.951 38.9941 262.859 39.2871 263.43C39.5801 263.996 40.0469 264.279 40.6875 264.279C41.3359 264.279 41.8047 263.992 42.0938 263.418C42.3867 262.84 42.5332 261.936 42.5332 260.705C42.5332 259.475 42.3867 258.574 42.0938 258.004C41.8047 257.43 41.3359 257.143 40.6875 257.143C40.0469 257.143 39.5801 257.426 39.2871 257.992C38.9941 258.555 38.8477 259.459 38.8477 260.705ZM50.3965 260.705C50.3965 262.186 50.1621 263.291 49.6934 264.021C49.2285 264.752 48.5156 265.117 47.5547 265.117C46.6328 265.117 45.9316 264.744 45.4512 263.998C44.9707 263.248 44.7305 262.15 44.7305 260.705C44.7305 259.213 44.9629 258.105 45.4277 257.383C45.8926 256.66 46.6016 256.299 47.5547 256.299C48.4844 256.299 49.1895 256.676 49.6699 257.43C50.1543 258.184 50.3965 259.275 50.3965 260.705ZM45.7148 260.705C45.7148 261.951 45.8613 262.859 46.1543 263.43C46.4473 263.996 46.9141 264.279 47.5547 264.279C48.2031 264.279 48.6719 263.992 48.9609 263.418C49.2539 262.84 49.4004 261.936 49.4004 260.705C49.4004 259.475 49.2539 258.574 48.9609 258.004C48.6719 257.43 48.2031 257.143 47.5547 257.143C46.9141 257.143 46.4473 257.426 46.1543 257.992C45.8613 258.555 45.7148 259.459 45.7148 260.705Z" fill="#807E7E"/>
<path d="M27.7793 224H26.8301V217.895C26.8301 217.387 26.8457 216.906 26.877 216.453C26.7949 216.535 26.7031 216.621 26.6016 216.711C26.5 216.801 26.0352 217.182 25.207 217.854L24.6914 217.186L26.959 215.434H27.7793V224ZM32.5078 222.605L32.5957 222.74C32.4941 223.131 32.3477 223.584 32.1562 224.1C31.9648 224.619 31.7656 225.102 31.5586 225.547H30.8262C30.9316 225.141 31.0469 224.639 31.1719 224.041C31.3008 223.443 31.3906 222.965 31.4414 222.605H32.5078ZM39.6621 219.705C39.6621 221.186 39.4277 222.291 38.959 223.021C38.4941 223.752 37.7812 224.117 36.8203 224.117C35.8984 224.117 35.1973 223.744 34.7168 222.998C34.2363 222.248 33.9961 221.15 33.9961 219.705C33.9961 218.213 34.2285 217.105 34.6934 216.383C35.1582 215.66 35.8672 215.299 36.8203 215.299C37.75 215.299 38.4551 215.676 38.9355 216.43C39.4199 217.184 39.6621 218.275 39.6621 219.705ZM34.9805 219.705C34.9805 220.951 35.127 221.859 35.4199 222.43C35.7129 222.996 36.1797 223.279 36.8203 223.279C37.4688 223.279 37.9375 222.992 38.2266 222.418C38.5195 221.84 38.666 220.936 38.666 219.705C38.666 218.475 38.5195 217.574 38.2266 217.004C37.9375 216.43 37.4688 216.143 36.8203 216.143C36.1797 216.143 35.7129 216.426 35.4199 216.992C35.127 217.555 34.9805 218.459 34.9805 219.705ZM46.5293 219.705C46.5293 221.186 46.2949 222.291 45.8262 223.021C45.3613 223.752 44.6484 224.117 43.6875 224.117C42.7656 224.117 42.0645 223.744 41.584 222.998C41.1035 222.248 40.8633 221.15 40.8633 219.705C40.8633 218.213 41.0957 217.105 41.5605 216.383C42.0254 215.66 42.7344 215.299 43.6875 215.299C44.6172 215.299 45.3223 215.676 45.8027 216.43C46.2871 217.184 46.5293 218.275 46.5293 219.705ZM41.8477 219.705C41.8477 220.951 41.9941 221.859 42.2871 222.43C42.5801 222.996 43.0469 223.279 43.6875 223.279C44.3359 223.279 44.8047 222.992 45.0938 222.418C45.3867 221.84 45.5332 220.936 45.5332 219.705C45.5332 218.475 45.3867 217.574 45.0938 217.004C44.8047 216.43 44.3359 216.143 43.6875 216.143C43.0469 216.143 42.5801 216.426 42.2871 216.992C41.9941 217.555 41.8477 218.459 41.8477 219.705ZM53.3965 219.705C53.3965 221.186 53.1621 222.291 52.6934 223.021C52.2285 223.752 51.5156 224.117 50.5547 224.117C49.6328 224.117 48.9316 223.744 48.4512 222.998C47.9707 222.248 47.7305 221.15 47.7305 219.705C47.7305 218.213 47.9629 217.105 48.4277 216.383C48.8926 215.66 49.6016 215.299 50.5547 215.299C51.4844 215.299 52.1895 215.676 52.6699 216.43C53.1543 217.184 53.3965 218.275 53.3965 219.705ZM48.7148 219.705C48.7148 220.951 48.8613 221.859 49.1543 222.43C49.4473 222.996 49.9141 223.279 50.5547 223.279C51.2031 223.279 51.6719 222.992 51.9609 222.418C52.2539 221.84 52.4004 220.936 52.4004 219.705C52.4004 218.475 52.2539 217.574 51.9609 217.004C51.6719 216.43 51.2031 216.143 50.5547 216.143C49.9141 216.143 49.4473 216.426 49.1543 216.992C48.8613 217.555 48.7148 218.459 48.7148 219.705Z" fill="#807E7E"/>
<path d="M27.7793 183H26.8301V176.895C26.8301 176.387 26.8457 175.906 26.877 175.453C26.7949 175.535 26.7031 175.621 26.6016 175.711C26.5 175.801 26.0352 176.182 25.207 176.854L24.6914 176.186L26.959 174.434H27.7793V183ZM32.5078 181.605L32.5957 181.74C32.4941 182.131 32.3477 182.584 32.1562 183.1C31.9648 183.619 31.7656 184.102 31.5586 184.547H30.8262C30.9316 184.141 31.0469 183.639 31.1719 183.041C31.3008 182.443 31.3906 181.965 31.4414 181.605H32.5078ZM36.6621 177.768C37.5645 177.768 38.2734 177.992 38.7891 178.441C39.3086 178.887 39.5684 179.498 39.5684 180.275C39.5684 181.162 39.2852 181.857 38.7188 182.361C38.1562 182.865 37.3789 183.117 36.3867 183.117C35.4219 183.117 34.6855 182.963 34.1777 182.654V181.717C34.4512 181.893 34.791 182.031 35.1973 182.133C35.6035 182.23 36.0039 182.279 36.3984 182.279C37.0859 182.279 37.6191 182.117 37.998 181.793C38.3809 181.469 38.5723 181 38.5723 180.387C38.5723 179.191 37.8398 178.594 36.375 178.594C36.0039 178.594 35.5078 178.65 34.8867 178.764L34.3828 178.441L34.7051 174.434H38.9648V175.33H35.5371L35.3203 177.902C35.7695 177.812 36.2168 177.768 36.6621 177.768ZM46.5293 178.705C46.5293 180.186 46.2949 181.291 45.8262 182.021C45.3613 182.752 44.6484 183.117 43.6875 183.117C42.7656 183.117 42.0645 182.744 41.584 181.998C41.1035 181.248 40.8633 180.15 40.8633 178.705C40.8633 177.213 41.0957 176.105 41.5605 175.383C42.0254 174.66 42.7344 174.299 43.6875 174.299C44.6172 174.299 45.3223 174.676 45.8027 175.43C46.2871 176.184 46.5293 177.275 46.5293 178.705ZM41.8477 178.705C41.8477 179.951 41.9941 180.859 42.2871 181.43C42.5801 181.996 43.0469 182.279 43.6875 182.279C44.3359 182.279 44.8047 181.992 45.0938 181.418C45.3867 180.84 45.5332 179.936 45.5332 178.705C45.5332 177.475 45.3867 176.574 45.0938 176.004C44.8047 175.43 44.3359 175.143 43.6875 175.143C43.0469 175.143 42.5801 175.426 42.2871 175.992C41.9941 176.555 41.8477 177.459 41.8477 178.705ZM53.3965 178.705C53.3965 180.186 53.1621 181.291 52.6934 182.021C52.2285 182.752 51.5156 183.117 50.5547 183.117C49.6328 183.117 48.9316 182.744 48.4512 181.998C47.9707 181.248 47.7305 180.15 47.7305 178.705C47.7305 177.213 47.9629 176.105 48.4277 175.383C48.8926 174.66 49.6016 174.299 50.5547 174.299C51.4844 174.299 52.1895 174.676 52.6699 175.43C53.1543 176.184 53.3965 177.275 53.3965 178.705ZM48.7148 178.705C48.7148 179.951 48.8613 180.859 49.1543 181.43C49.4473 181.996 49.9141 182.279 50.5547 182.279C51.2031 182.279 51.6719 181.992 51.9609 181.418C52.2539 180.84 52.4004 179.936 52.4004 178.705C52.4004 177.475 52.2539 176.574 51.9609 176.004C51.6719 175.43 51.2031 175.143 50.5547 175.143C49.9141 175.143 49.4473 175.426 49.1543 175.992C48.8613 176.555 48.7148 177.459 48.7148 178.705Z" fill="#807E7E"/>
<path d="M29.8066 142H24.1758V141.162L26.4316 138.895C27.1191 138.199 27.5723 137.703 27.791 137.406C28.0098 137.109 28.1738 136.82 28.2832 136.539C28.3926 136.258 28.4473 135.955 28.4473 135.631C28.4473 135.174 28.3086 134.812 28.0312 134.547C27.7539 134.277 27.3691 134.143 26.877 134.143C26.5215 134.143 26.1836 134.201 25.8633 134.318C25.5469 134.436 25.1934 134.648 24.8027 134.957L24.2871 134.295C25.0762 133.639 25.9355 133.311 26.8652 133.311C27.6699 133.311 28.3008 133.518 28.7578 133.932C29.2148 134.342 29.4434 134.895 29.4434 135.59C29.4434 136.133 29.291 136.67 28.9863 137.201C28.6816 137.732 28.1113 138.404 27.2754 139.217L25.4004 141.051V141.098H29.8066V142ZM32.5078 140.605L32.5957 140.74C32.4941 141.131 32.3477 141.584 32.1562 142.1C31.9648 142.619 31.7656 143.102 31.5586 143.547H30.8262C30.9316 143.141 31.0469 142.639 31.1719 142.041C31.3008 141.443 31.3906 140.965 31.4414 140.605H32.5078ZM39.6621 137.705C39.6621 139.186 39.4277 140.291 38.959 141.021C38.4941 141.752 37.7812 142.117 36.8203 142.117C35.8984 142.117 35.1973 141.744 34.7168 140.998C34.2363 140.248 33.9961 139.15 33.9961 137.705C33.9961 136.213 34.2285 135.105 34.6934 134.383C35.1582 133.66 35.8672 133.299 36.8203 133.299C37.75 133.299 38.4551 133.676 38.9355 134.43C39.4199 135.184 39.6621 136.275 39.6621 137.705ZM34.9805 137.705C34.9805 138.951 35.127 139.859 35.4199 140.43C35.7129 140.996 36.1797 141.279 36.8203 141.279C37.4688 141.279 37.9375 140.992 38.2266 140.418C38.5195 139.84 38.666 138.936 38.666 137.705C38.666 136.475 38.5195 135.574 38.2266 135.004C37.9375 134.43 37.4688 134.143 36.8203 134.143C36.1797 134.143 35.7129 134.426 35.4199 134.992C35.127 135.555 34.9805 136.459 34.9805 137.705ZM46.5293 137.705C46.5293 139.186 46.2949 140.291 45.8262 141.021C45.3613 141.752 44.6484 142.117 43.6875 142.117C42.7656 142.117 42.0645 141.744 41.584 140.998C41.1035 140.248 40.8633 139.15 40.8633 137.705C40.8633 136.213 41.0957 135.105 41.5605 134.383C42.0254 133.66 42.7344 133.299 43.6875 133.299C44.6172 133.299 45.3223 133.676 45.8027 134.43C46.2871 135.184 46.5293 136.275 46.5293 137.705ZM41.8477 137.705C41.8477 138.951 41.9941 139.859 42.2871 140.43C42.5801 140.996 43.0469 141.279 43.6875 141.279C44.3359 141.279 44.8047 140.992 45.0938 140.418C45.3867 139.84 45.5332 138.936 45.5332 137.705C45.5332 136.475 45.3867 135.574 45.0938 135.004C44.8047 134.43 44.3359 134.143 43.6875 134.143C43.0469 134.143 42.5801 134.426 42.2871 134.992C41.9941 135.555 41.8477 136.459 41.8477 137.705ZM53.3965 137.705C53.3965 139.186 53.1621 140.291 52.6934 141.021C52.2285 141.752 51.5156 142.117 50.5547 142.117C49.6328 142.117 48.9316 141.744 48.4512 140.998C47.9707 140.248 47.7305 139.15 47.7305 137.705C47.7305 136.213 47.9629 135.105 48.4277 134.383C48.8926 133.66 49.6016 133.299 50.5547 133.299C51.4844 133.299 52.1895 133.676 52.6699 134.43C53.1543 135.184 53.3965 136.275 53.3965 137.705ZM48.7148 137.705C48.7148 138.951 48.8613 139.859 49.1543 140.43C49.4473 140.996 49.9141 141.279 50.5547 141.279C51.2031 141.279 51.6719 140.992 51.9609 140.418C52.2539 139.84 52.4004 138.936 52.4004 137.705C52.4004 136.475 52.2539 135.574 51.9609 135.004C51.6719 134.43 51.2031 134.143 50.5547 134.143C49.9141 134.143 49.4473 134.426 49.1543 134.992C48.8613 135.555 48.7148 136.459 48.7148 137.705Z" fill="#807E7E"/>
<path d="M29.8066 101H24.1758V100.162L26.4316 97.8945C27.1191 97.1992 27.5723 96.7031 27.791 96.4062C28.0098 96.1094 28.1738 95.8203 28.2832 95.5391C28.3926 95.2578 28.4473 94.9551 28.4473 94.6309C28.4473 94.1738 28.3086 93.8125 28.0312 93.5469C27.7539 93.2773 27.3691 93.1426 26.877 93.1426C26.5215 93.1426 26.1836 93.2012 25.8633 93.3184C25.5469 93.4355 25.1934 93.6484 24.8027 93.957L24.2871 93.2949C25.0762 92.6387 25.9355 92.3105 26.8652 92.3105C27.6699 92.3105 28.3008 92.5176 28.7578 92.9316C29.2148 93.3418 29.4434 93.8945 29.4434 94.5898C29.4434 95.1328 29.291 95.6699 28.9863 96.2012C28.6816 96.7324 28.1113 97.4043 27.2754 98.2168L25.4004 100.051V100.098H29.8066V101ZM32.5078 99.6055L32.5957 99.7402C32.4941 100.131 32.3477 100.584 32.1562 101.1C31.9648 101.619 31.7656 102.102 31.5586 102.547H30.8262C30.9316 102.141 31.0469 101.639 31.1719 101.041C31.3008 100.443 31.3906 99.9648 31.4414 99.6055H32.5078ZM36.6621 95.7676C37.5645 95.7676 38.2734 95.9922 38.7891 96.4414C39.3086 96.8867 39.5684 97.498 39.5684 98.2754C39.5684 99.1621 39.2852 99.8574 38.7188 100.361C38.1562 100.865 37.3789 101.117 36.3867 101.117C35.4219 101.117 34.6855 100.963 34.1777 100.654V99.7168C34.4512 99.8926 34.791 100.031 35.1973 100.133C35.6035 100.23 36.0039 100.279 36.3984 100.279C37.0859 100.279 37.6191 100.117 37.998 99.793C38.3809 99.4688 38.5723 99 38.5723 98.3867C38.5723 97.1914 37.8398 96.5938 36.375 96.5938C36.0039 96.5938 35.5078 96.6504 34.8867 96.7637L34.3828 96.4414L34.7051 92.4336H38.9648V93.3301H35.5371L35.3203 95.9023C35.7695 95.8125 36.2168 95.7676 36.6621 95.7676ZM46.5293 96.7051C46.5293 98.1855 46.2949 99.291 45.8262 100.021C45.3613 100.752 44.6484 101.117 43.6875 101.117C42.7656 101.117 42.0645 100.744 41.584 99.998C41.1035 99.248 40.8633 98.1504 40.8633 96.7051C40.8633 95.2129 41.0957 94.1055 41.5605 93.3828C42.0254 92.6602 42.7344 92.2988 43.6875 92.2988C44.6172 92.2988 45.3223 92.6758 45.8027 93.4297C46.2871 94.1836 46.5293 95.2754 46.5293 96.7051ZM41.8477 96.7051C41.8477 97.9512 41.9941 98.8594 42.2871 99.4297C42.5801 99.9961 43.0469 100.279 43.6875 100.279C44.3359 100.279 44.8047 99.9922 45.0938 99.418C45.3867 98.8398 45.5332 97.9355 45.5332 96.7051C45.5332 95.4746 45.3867 94.5742 45.0938 94.0039C44.8047 93.4297 44.3359 93.1426 43.6875 93.1426C43.0469 93.1426 42.5801 93.4258 42.2871 93.9922C41.9941 94.5547 41.8477 95.459 41.8477 96.7051ZM53.3965 96.7051C53.3965 98.1855 53.1621 99.291 52.6934 100.021C52.2285 100.752 51.5156 101.117 50.5547 101.117C49.6328 101.117 48.9316 100.744 48.4512 99.998C47.9707 99.248 47.7305 98.1504 47.7305 96.7051C47.7305 95.2129 47.9629 94.1055 48.4277 93.3828C48.8926 92.6602 49.6016 92.2988 50.5547 92.2988C51.4844 92.2988 52.1895 92.6758 52.6699 93.4297C53.1543 94.1836 53.3965 95.2754 53.3965 96.7051ZM48.7148 96.7051C48.7148 97.9512 48.8613 98.8594 49.1543 99.4297C49.4473 99.9961 49.9141 100.279 50.5547 100.279C51.2031 100.279 51.6719 99.9922 51.9609 99.418C52.2539 98.8398 52.4004 97.9355 52.4004 96.7051C52.4004 95.4746 52.2539 94.5742 51.9609 94.0039C51.6719 93.4297 51.2031 93.1426 50.5547 93.1426C49.9141 93.1426 49.4473 93.4258 49.1543 93.9922C48.8613 94.5547 48.7148 95.459 48.7148 96.7051Z" fill="#807E7E"/>
</g>
<path fill-rule="evenodd" clip-rule="evenodd" d="M138.22 249.978C171.972 248.485 179.671 237.835 224.081 202.159C268.492 166.483 284.825 182.235 317.336 205.911C349.846 229.587 345.29 213.572 382.063 214.94C418.835 216.308 443.094 285.774 500.281 288.239C557.467 290.704 560.228 123.996 597.457 123.011C634.686 122.026 626.851 189.023 653.663 190.283C680.475 191.542 668.44 281.045 726.096 284.364C783.752 287.683 787.561 183.947 830.971 182.053C874.381 180.16 891.572 319.14 943.487 264.077C995.402 209.013 1022.21 281.928 1022.21 281.928L1029 301H70.0054C70.0054 301 114.207 251.041 138.22 249.978Z" fill="#5A9CFE"/>
<path fill-rule="evenodd" clip-rule="evenodd" d="M960.78 284.948C927.028 284.478 919.329 281.128 874.919 269.904C830.508 258.68 814.175 263.636 781.664 271.084C749.154 278.533 753.71 273.495 716.937 273.925C680.165 274.355 655.906 296.21 598.719 296.985C541.533 297.761 538.772 245.313 501.543 245.003C464.314 244.693 472.149 265.771 445.337 266.168C418.525 266.564 430.56 294.722 372.904 295.766C315.248 296.81 311.439 264.174 268.029 263.579C224.619 262.983 207.428 306.707 155.513 289.384C103.598 272.06 81.6718 294.131 81.6718 294.131L70 301H1028.99C1028.99 301 984.793 285.283 960.78 284.948Z" fill="#FFC107"/>
<g clip-path="url(#clip4_878_100324)">
<rect width="1053" height="65" fill="#D8D8D8" fill-opacity="0.01"/>
<path d="M32.5938 39L31.4531 35.8281H27.0859L25.9688 39H24L28.2734 27.5312H30.3047L34.5781 39H32.5938ZM30.9609 34.2188L29.8906 31.1094C29.8125 30.901 29.7031 30.5729 29.5625 30.125C29.4271 29.6771 29.3333 29.349 29.2812 29.1406C29.1406 29.7812 28.9349 30.4818 28.6641 31.2422L27.6328 34.2188H30.9609ZM43.4922 39H41.6484V33.6875C41.6484 33.0208 41.513 32.5234 41.2422 32.1953C40.9766 31.8672 40.5521 31.7031 39.9688 31.7031C39.1927 31.7031 38.625 31.9323 38.2656 32.3906C37.9062 32.849 37.7266 33.6172 37.7266 34.6953V39H35.8906V30.3594H37.3281L37.5859 31.4922H37.6797C37.9401 31.0807 38.3099 30.763 38.7891 30.5391C39.2682 30.3151 39.7995 30.2031 40.3828 30.2031C42.4557 30.2031 43.4922 31.2578 43.4922 33.3672V39ZM51.4531 39L51.0859 37.7969H51.0234C50.6068 38.3229 50.1875 38.6823 49.7656 38.875C49.3438 39.0625 48.8021 39.1562 48.1406 39.1562C47.2917 39.1562 46.6276 38.9271 46.1484 38.4688C45.6745 38.0104 45.4375 37.362 45.4375 36.5234C45.4375 35.6328 45.7682 34.9609 46.4297 34.5078C47.0911 34.0547 48.099 33.8073 49.4531 33.7656L50.9453 33.7188V33.2578C50.9453 32.7057 50.8151 32.2943 50.5547 32.0234C50.2995 31.7474 49.901 31.6094 49.3594 31.6094C48.9167 31.6094 48.4922 31.6745 48.0859 31.8047C47.6797 31.9349 47.2891 32.0885 46.9141 32.2656L46.3203 30.9531C46.7891 30.7083 47.3021 30.5234 47.8594 30.3984C48.4167 30.2682 48.9427 30.2031 49.4375 30.2031C50.5365 30.2031 51.3646 30.4427 51.9219 30.9219C52.4844 31.401 52.7656 32.1536 52.7656 33.1797V39H51.4531ZM48.7188 37.75C49.3854 37.75 49.9193 37.5651 50.3203 37.1953C50.7266 36.8203 50.9297 36.2969 50.9297 35.625V34.875L49.8203 34.9219C48.9557 34.9531 48.3255 35.099 47.9297 35.3594C47.5391 35.6146 47.3438 36.0078 47.3438 36.5391C47.3438 36.9245 47.4583 37.224 47.6875 37.4375C47.9167 37.6458 48.2604 37.75 48.7188 37.75ZM57.1641 39H55.3281V26.8438H57.1641V39ZM58.4844 30.3594H60.4844L62.2422 35.2578C62.5078 35.9557 62.6849 36.612 62.7734 37.2266H62.8359C62.8828 36.9401 62.9688 36.5938 63.0938 36.1875C63.2188 35.776 63.8802 33.8333 65.0781 30.3594H67.0625L63.3672 40.1484C62.6953 41.9453 61.5755 42.8438 60.0078 42.8438C59.6016 42.8438 59.2057 42.7995 58.8203 42.7109V41.2578C59.0964 41.3203 59.4115 41.3516 59.7656 41.3516C60.651 41.3516 61.2734 40.8385 61.6328 39.8125L61.9531 39L58.4844 30.3594ZM71.5938 37.6719C72.0417 37.6719 72.4896 37.6016 72.9375 37.4609V38.8438C72.7344 38.9323 72.4714 39.0052 72.1484 39.0625C71.8307 39.125 71.5 39.1562 71.1562 39.1562C69.4167 39.1562 68.5469 38.2396 68.5469 36.4062V31.75H67.3672V30.9375L68.6328 30.2656L69.2578 28.4375H70.3906V30.3594H72.8516V31.75H70.3906V36.375C70.3906 36.8177 70.5 37.1458 70.7188 37.3594C70.9427 37.5677 71.2344 37.6719 71.5938 37.6719ZM76.5078 39H74.6719V30.3594H76.5078V39ZM74.5625 28.0703C74.5625 27.7422 74.651 27.4896 74.8281 27.3125C75.0104 27.1354 75.2682 27.0469 75.6016 27.0469C75.9245 27.0469 76.1745 27.1354 76.3516 27.3125C76.5339 27.4896 76.625 27.7422 76.625 28.0703C76.625 28.3828 76.5339 28.6302 76.3516 28.8125C76.1745 28.9896 75.9245 29.0781 75.6016 29.0781C75.2682 29.0781 75.0104 28.9896 74.8281 28.8125C74.651 28.6302 74.5625 28.3828 74.5625 28.0703ZM82.625 39.1562C81.3177 39.1562 80.3229 38.776 79.6406 38.0156C78.9635 37.25 78.625 36.1536 78.625 34.7266C78.625 33.2734 78.9792 32.1562 79.6875 31.375C80.401 30.5938 81.4297 30.2031 82.7734 30.2031C83.6849 30.2031 84.5052 30.3724 85.2344 30.7109L84.6797 32.1875C83.9036 31.8854 83.263 31.7344 82.7578 31.7344C81.263 31.7344 80.5156 32.7266 80.5156 34.7109C80.5156 35.6797 80.7005 36.4089 81.0703 36.8984C81.4453 37.3828 81.9922 37.625 82.7109 37.625C83.5286 37.625 84.3021 37.4219 85.0312 37.0156V38.6172C84.7031 38.8099 84.3516 38.9479 83.9766 39.0312C83.6068 39.1146 83.1562 39.1562 82.625 39.1562ZM92.8672 36.5391C92.8672 37.3828 92.5599 38.0312 91.9453 38.4844C91.3307 38.9323 90.4505 39.1562 89.3047 39.1562C88.1536 39.1562 87.2292 38.9818 86.5312 38.6328V37.0469C87.5469 37.5156 88.4922 37.75 89.3672 37.75C90.4974 37.75 91.0625 37.4089 91.0625 36.7266C91.0625 36.5078 91 36.3255 90.875 36.1797C90.75 36.0339 90.5443 35.8828 90.2578 35.7266C89.9714 35.5703 89.5729 35.3932 89.0625 35.1953C88.0677 34.8099 87.3932 34.4245 87.0391 34.0391C86.6901 33.6536 86.5156 33.1536 86.5156 32.5391C86.5156 31.7995 86.8125 31.2266 87.4062 30.8203C88.0052 30.4089 88.8177 30.2031 89.8438 30.2031C90.8594 30.2031 91.8203 30.4089 92.7266 30.8203L92.1328 32.2031C91.2005 31.8177 90.4167 31.625 89.7812 31.625C88.8125 31.625 88.3281 31.901 88.3281 32.4531C88.3281 32.724 88.4531 32.9531 88.7031 33.1406C88.9583 33.3281 89.5104 33.5859 90.3594 33.9141C91.0729 34.1901 91.5911 34.4427 91.9141 34.6719C92.237 34.901 92.4766 35.1667 92.6328 35.4688C92.7891 35.7656 92.8672 36.1224 92.8672 36.5391Z" fill="#212121"/>
<path d="M961.36 30.1H959.04V29H964.98V30.1H962.66V36H961.36V30.1ZM968.866 30.6C969.539 30.6 970.079 30.7967 970.486 31.19C970.892 31.5833 971.096 32.1667 971.096 32.94V36H969.846V33.1C969.846 32.6333 969.736 32.2833 969.516 32.05C969.296 31.81 968.982 31.69 968.576 31.69C968.116 31.69 967.752 31.83 967.486 32.11C967.219 32.3833 967.086 32.78 967.086 33.3V36H965.836V28.58H967.086V31.28C967.292 31.06 967.546 30.8933 967.846 30.78C968.152 30.66 968.492 30.6 968.866 30.6ZM972.681 30.66H973.931V36H972.681V30.66ZM973.311 29.78C973.085 29.78 972.895 29.71 972.741 29.57C972.588 29.4233 972.511 29.2433 972.511 29.03C972.511 28.8167 972.588 28.64 972.741 28.5C972.895 28.3533 973.085 28.28 973.311 28.28C973.538 28.28 973.728 28.35 973.881 28.49C974.035 28.6233 974.111 28.7933 974.111 29C974.111 29.22 974.035 29.4067 973.881 29.56C973.735 29.7067 973.545 29.78 973.311 29.78ZM977.222 36.07C976.789 36.07 976.365 36.0133 975.952 35.9C975.539 35.7867 975.209 35.6433 974.962 35.47L975.442 34.52C975.682 34.68 975.969 34.81 976.302 34.91C976.642 35.0033 976.975 35.05 977.302 35.05C978.049 35.05 978.422 34.8533 978.422 34.46C978.422 34.2733 978.325 34.1433 978.132 34.07C977.945 33.9967 977.642 33.9267 977.222 33.86C976.782 33.7933 976.422 33.7167 976.142 33.63C975.869 33.5433 975.629 33.3933 975.422 33.18C975.222 32.96 975.122 32.6567 975.122 32.27C975.122 31.7633 975.332 31.36 975.752 31.06C976.179 30.7533 976.752 30.6 977.472 30.6C977.839 30.6 978.205 30.6433 978.572 30.73C978.939 30.81 979.239 30.92 979.472 31.06L978.992 32.01C978.539 31.7433 978.029 31.61 977.462 31.61C977.095 31.61 976.815 31.6667 976.622 31.78C976.435 31.8867 976.342 32.03 976.342 32.21C976.342 32.41 976.442 32.5533 976.642 32.64C976.849 32.72 977.165 32.7967 977.592 32.87C978.019 32.9367 978.369 33.0133 978.642 33.1C978.915 33.1867 979.149 33.3333 979.342 33.54C979.542 33.7467 979.642 34.04 979.642 34.42C979.642 34.92 979.425 35.32 978.992 35.62C978.559 35.92 977.969 36.07 977.222 36.07ZM991.812 30.66L989.842 36H988.642L987.262 32.32L985.862 36H984.662L982.702 30.66H983.882L985.292 34.6L986.762 30.66H987.812L989.252 34.62L990.702 30.66H991.812ZM997.545 33.36C997.545 33.4467 997.538 33.57 997.525 33.73H993.335C993.408 34.1233 993.598 34.4367 993.905 34.67C994.218 34.8967 994.605 35.01 995.065 35.01C995.652 35.01 996.135 34.8167 996.515 34.43L997.185 35.2C996.945 35.4867 996.642 35.7033 996.275 35.85C995.908 35.9967 995.495 36.07 995.035 36.07C994.448 36.07 993.932 35.9533 993.485 35.72C993.038 35.4867 992.692 35.1633 992.445 34.75C992.205 34.33 992.085 33.8567 992.085 33.33C992.085 32.81 992.202 32.3433 992.435 31.93C992.675 31.51 993.005 31.1833 993.425 30.95C993.845 30.7167 994.318 30.6 994.845 30.6C995.365 30.6 995.828 30.7167 996.235 30.95C996.648 31.1767 996.968 31.5 997.195 31.92C997.428 32.3333 997.545 32.8133 997.545 33.36ZM994.845 31.6C994.445 31.6 994.105 31.72 993.825 31.96C993.552 32.1933 993.385 32.5067 993.325 32.9H996.355C996.302 32.5133 996.138 32.2 995.865 31.96C995.592 31.72 995.252 31.6 994.845 31.6ZM1003.77 33.36C1003.77 33.4467 1003.76 33.57 1003.75 33.73H999.556C999.629 34.1233 999.819 34.4367 1000.13 34.67C1000.44 34.8967 1000.83 35.01 1001.29 35.01C1001.87 35.01 1002.36 34.8167 1002.74 34.43L1003.41 35.2C1003.17 35.4867 1002.86 35.7033 1002.5 35.85C1002.13 35.9967 1001.72 36.07 1001.26 36.07C1000.67 36.07 1000.15 35.9533 999.706 35.72C999.259 35.4867 998.912 35.1633 998.666 34.75C998.426 34.33 998.306 33.8567 998.306 33.33C998.306 32.81 998.422 32.3433 998.656 31.93C998.896 31.51 999.226 31.1833 999.646 30.95C1000.07 30.7167 1000.54 30.6 1001.07 30.6C1001.59 30.6 1002.05 30.7167 1002.46 30.95C1002.87 31.1767 1003.19 31.5 1003.42 31.92C1003.65 32.3333 1003.77 32.8133 1003.77 33.36ZM1001.07 31.6C1000.67 31.6 1000.33 31.72 1000.05 31.96C999.772 32.1933 999.606 32.5067 999.546 32.9H1002.58C1002.52 32.5133 1002.36 32.2 1002.09 31.96C1001.81 31.72 1001.47 31.6 1001.07 31.6ZM1007.15 33.71L1006.22 34.59V36H1004.97V28.58H1006.22V33.06L1008.81 30.66H1010.31L1008.08 32.9L1010.52 36H1009L1007.15 33.71Z" fill="#0D6EFD"/>
<path fill-rule="evenodd" clip-rule="evenodd" d="M1023.39 33.8902C1023.26 34.0233 1023.05 34.0354 1022.9 33.9265L1022.86 33.8902L1019.84 30.8727L1019.82 30.8481L1019.79 30.8024L1019.78 30.771L1019.76 30.7247L1019.75 30.6759L1019.75 30.6512L1019.75 30.625L1019.75 30.5988L1019.75 30.5741L1019.76 30.5253L1019.78 30.479L1019.79 30.4476L1019.83 30.3995C1019.84 30.3802 1019.85 30.3636 1019.87 30.3489L1019.9 30.3235L1019.95 30.2945L1019.98 30.2795L1020.02 30.2634L1020.07 30.2534L1020.1 30.2509L1020.12 30.25H1026.12C1026.44 30.25 1026.61 30.6125 1026.42 30.8516L1026.39 30.8902L1023.39 33.8902ZM1023.12 33.0943L1025.22 30.9998H1021.03L1023.12 33.0943Z" fill="#0D6EFD"/>
<rect x="24" y="64" width="1005" height="1" fill="#EAEAEA"/>
</g>
</g>
<defs>
<clipPath id="clip0_878_100324">
<rect width="1053" height="420" fill="white"/>
</clipPath>
<clipPath id="clip1_878_100324">
<rect width="960" height="221" fill="white" transform="translate(69 81)"/>
</clipPath>
<clipPath id="clip2_878_100324">
<rect width="959" height="21" fill="white" transform="translate(70 310)"/>
</clipPath>
<clipPath id="clip3_878_100324">
<rect width="30" height="226" fill="white" transform="translate(24 86)"/>
</clipPath>
<clipPath id="clip4_878_100324">
<rect width="1053" height="65" fill="white"/>
</clipPath>
</defs>
</svg>
