<svg width="98" height="98" viewBox="0 0 98 98" fill="none" xmlns="http://www.w3.org/2000/svg">
<circle cx="49" cy="49" r="49" fill="#FFC107"/>
<path fill-rule="evenodd" clip-rule="evenodd" d="M50.9863 35.5924C50.887 34.8755 50.2594 34.3229 49.5 34.3229C48.6716 34.3229 48 34.9805 48 35.7917V48.0313H35.5L35.2965 48.0447C34.5643 48.1419 34 48.7564 34 49.5C34 50.3112 34.6716 50.9688 35.5 50.9688H48V63.2083L48.0137 63.4076C48.113 64.1245 48.7406 64.6771 49.5 64.6771C50.3284 64.6771 51 64.0195 51 63.2083V50.9688H63.5L63.7035 50.9553C64.4357 50.8581 65 50.2436 65 49.5C65 48.6888 64.3284 48.0313 63.5 48.0313H51V35.7917L50.9863 35.5924Z" fill="#212121"/>
</svg>
