<svg width="54" height="28" viewBox="0 0 54 28" fill="none" xmlns="http://www.w3.org/2000/svg">
<path fill-rule="evenodd" clip-rule="evenodd" d="M42.4392 0V6H47.9749L50.2678 14C52.329 14 54 15.671 54 17.7322V20.0966C54 22.1604 52.3792 23.8457 50.3411 23.949L50.1426 23.954L50.1464 24C50.1464 26.206 48.4181 28 46.2928 28C44.1676 28 42.4392 26.206 42.4392 24L42.4431 23.954H32.7994C32.8014 23.97 32.8052 23.984 32.8052 24C32.8052 26.206 31.0769 28 28.9516 28C26.8264 28 25.098 26.206 25.098 24L25.1019 23.954H21.2444V0H42.4392ZM46.2928 22C45.2311 22 44.366 22.898 44.366 24C44.366 25.102 45.2311 26 46.2928 26C47.3545 26 48.2196 25.102 48.2196 24C48.2196 22.898 47.3545 22 46.2928 22ZM28.9516 22C27.89 22 27.0248 22.898 27.0248 24C27.0248 25.102 27.89 26 28.9516 26C30.0133 26 30.8784 25.102 30.8784 24C30.8784 22.898 30.0133 22 28.9516 22ZM40.5124 2H23.1712V21.954H25.6587C26.3331 20.79 27.5489 20 28.9516 20C30.3543 20 31.5702 20.79 32.2445 21.954H42.9999C43.6743 20.79 44.8901 20 46.2928 20C47.6955 20 48.9113 20.79 49.5857 21.954H52.0732V16H40.5124V2ZM17 15C17.5523 15 18 15.4477 18 16C18 16.5523 17.5523 17 17 17H12C11.4477 17 11 16.5523 11 16C11 15.4477 11.4477 15 12 15H17ZM46.5375 8H42.4392V14H48.2581L46.5375 8ZM17 10C17.5523 10 18 10.4477 18 11C18 11.5523 17.5523 12 17 12H5C4.44772 12 4 11.5523 4 11C4 10.4477 4.44772 10 5 10H17ZM17 5C17.5523 5 18 5.44772 18 6C18 6.55228 17.5523 7 17 7H1C0.447715 7 0 6.55228 0 6C0 5.44772 0.447715 5 1 5H17Z" fill="white"/>
</svg>
