<svg width="56" height="56" viewBox="0 0 56 56" fill="none" xmlns="http://www.w3.org/2000/svg">
<path fill-rule="evenodd" clip-rule="evenodd" d="M32.6667 12.25C33.1097 12.25 33.5327 12.4178 33.8536 12.714L34.0332 12.9068L42.84 23.9167H44.3333C47.7459 23.9167 50.5363 26.5806 50.7383 29.9424L50.75 30.3333V39.6667C50.75 40.5526 50.0916 41.2848 49.2375 41.4007L49 41.4167H45.8418C45.0801 44.1099 42.6038 46.0833 39.6667 46.0833C36.7295 46.0833 34.2533 44.1099 33.4915 41.4167H22.5085C21.7467 44.1099 19.2705 46.0833 16.3333 46.0833C13.3962 46.0833 10.92 44.1099 10.1582 41.4167H7C6.11404 41.4167 5.38185 40.7583 5.26598 39.9041L5.25 39.6667V25.6667C5.25 25.5393 5.26361 25.4151 5.28946 25.2954L5.34511 25.0967L10.0418 13.3501C10.2781 12.7595 10.8127 12.3496 11.4312 12.2659L11.6667 12.25H32.6667ZM10.1582 37.9167H8.75V27.4167H44.3333L44.6315 27.4317C46.1023 27.5811 47.25 28.8232 47.25 30.3333V37.9167H45.8418C45.08 35.2234 42.6038 33.25 39.6667 33.25C36.7295 33.25 34.2533 35.2234 33.4915 37.9167H22.5085C21.7467 35.2234 19.2705 33.25 16.3333 33.25C13.3962 33.25 10.92 35.2234 10.1582 37.9167ZM13.4167 39.6667C13.4167 41.2775 14.7225 42.5833 16.3333 42.5833C17.9442 42.5833 19.25 41.2775 19.25 39.6667C19.25 38.0558 17.9442 36.75 16.3333 36.75C14.7225 36.75 13.4167 38.0558 13.4167 39.6667ZM42.5833 39.6696C42.5833 39.6686 42.5833 39.6676 42.5833 39.6667C42.5833 38.0558 41.2775 36.75 39.6667 36.75C38.0558 36.75 36.75 38.0558 36.75 39.6667C36.75 41.2775 38.0558 42.5833 39.6667 42.5833C41.2765 42.5833 42.5818 41.2791 42.5833 39.6696ZM12.8497 15.75H26.25V23.9167H9.58299L12.8497 15.75ZM31.8267 15.75H29.75V23.9167H38.36L31.8267 15.75Z" fill="#212121"/>
</svg>
