<svg width="56" height="56" viewBox="0 0 56 56" fill="none" xmlns="http://www.w3.org/2000/svg">
<path fill-rule="evenodd" clip-rule="evenodd" d="M8.87649 15.481C9.24105 14.286 10.3523 13.4166 11.6667 13.4166H44.3333C45.6477 13.4166 46.759 14.286 47.1235 15.481L28 28.2301L8.87649 15.481ZM5.25008 16.3012C5.24976 16.3199 5.24973 16.3386 5.25 16.3572V39.6666C5.25 43.2105 8.12284 46.0833 11.6667 46.0833H44.3333C47.8772 46.0833 50.75 43.2105 50.75 39.6666V16.3572M47.25 19.6032V39.6666C47.25 41.2775 45.9442 42.5833 44.3333 42.5833H11.6667C10.0558 42.5833 8.75 41.2775 8.75 39.6666V19.6032L27.0293 31.7894C27.6171 32.1813 28.3829 32.1813 28.9707 31.7894L47.25 19.6032ZM50.7499 16.3013C50.7327 12.7722 47.8665 9.91663 44.3333 9.91663H11.6667C8.13353 9.91663 5.26734 12.7722 5.25008 16.3012" fill="#212121"/>
</svg>
