<svg width="56" height="56" viewBox="0 0 56 56" fill="none" xmlns="http://www.w3.org/2000/svg">
<path fill-rule="evenodd" clip-rule="evenodd" d="M45.5 12.251C45.5 8.06286 42.1048 4.66768 37.9167 4.66768L37.4427 4.67246C33.3531 4.82679 29.7393 7.90194 27.4403 12.7395L27.4144 12.7923L27.1215 12.1892C24.7211 7.48895 21.0339 4.59568 16.8862 4.66795C12.7285 4.66768 9.33335 8.06286 9.33335 12.251C9.33335 13.7542 9.7707 15.1552 10.5251 16.3337H8.75002C6.49486 16.3337 4.66669 18.1619 4.66669 20.4171V25.0837C4.66669 27.3389 6.49486 29.1671 8.75002 29.1671H9.33335V43.7504L9.34506 44.1413C9.54708 47.5031 12.3374 50.1671 15.75 50.1671H27.4167H39.0834L39.4742 50.1554C42.836 49.9534 45.5 47.163 45.5 43.7504V29.1671H46.0834C48.3385 29.1671 50.1667 27.3389 50.1667 25.0837V20.4171C50.1667 18.1619 48.3385 16.3337 46.0834 16.3337H44.3083C45.0627 15.1552 45.5 13.7542 45.5 12.251ZM37.8703 19.8337C37.8857 19.8341 37.9012 19.8343 37.9167 19.8343C37.949 19.8343 37.9812 19.8341 38.0134 19.8337H46.0834C46.4055 19.8337 46.6667 20.0949 46.6667 20.4171V25.0837C46.6667 25.4059 46.4055 25.6671 46.0834 25.6671H43.75H29.1667V19.8337H37.8703ZM37.9877 16.3337C40.2101 16.2959 42 14.4825 42 12.251C42 9.99585 40.1718 8.16768 37.8862 8.16742C34.6844 8.11163 31.5186 11.2032 29.7488 16.3337H37.9877ZM25.0845 16.3337C23.3143 11.2032 20.1454 8.11166 16.9167 8.16768C14.6615 8.16768 12.8334 9.99585 12.8334 12.251C12.8334 14.3934 14.4833 16.1505 16.5818 16.3208L16.9017 16.3337H25.0845ZM16.82 19.8337C16.8522 19.8341 16.8844 19.8343 16.9167 19.8343C16.9322 19.8343 16.9477 19.8341 16.9631 19.8337H25.6667V25.6671H11.0834H8.75002C8.42785 25.6671 8.16669 25.4059 8.16669 25.0837V20.4171C8.16669 20.0949 8.42785 19.8337 8.75002 19.8337H16.82ZM12.8334 43.7504V29.1671H25.6667V46.6671H15.75L15.4518 46.652C13.9811 46.5027 12.8334 45.2606 12.8334 43.7504ZM39.0834 46.6671H29.1667V29.1671H42V43.7504L41.985 44.0486C41.8356 45.5194 40.5935 46.6671 39.0834 46.6671Z" fill="#212121"/>
</svg>
