<svg width="14" height="14" viewBox="0 0 14 14" fill="none" xmlns="http://www.w3.org/2000/svg">
<mask id="path-1-inside-1_10043_666" fill="white">
<path fill-rule="evenodd" clip-rule="evenodd" d="M6.83146 2.67267L6.86303 2.70466L6.89478 2.67411C7.61981 1.99191 8.61889 1.6615 9.62074 1.79046L9.76385 1.81202C11.0038 2.02615 12.0196 2.91627 12.3947 4.11736C12.7698 5.31846 12.4411 6.62846 11.5434 7.5102L11.5169 7.53233L7.16973 11.8384C7.01472 11.9919 6.77359 12.0059 6.60293 11.8803L6.554 11.8384L2.18175 7.50813C1.277 6.62771 0.94321 5.31386 1.31804 4.10837C1.69287 2.90287 2.71282 2.00994 3.95729 1.79779C5.0103 1.61828 6.07313 1.95193 6.83146 2.67267ZM4.10435 2.66037C3.18452 2.81717 2.43065 3.47717 2.1536 4.36818C1.88974 5.21677 2.10095 6.138 2.69934 6.78595L2.79474 6.88375L6.86188 10.9122L10.929 6.88375L10.947 6.86793L11.0222 6.79076C11.6158 6.14222 11.8236 5.22371 11.5595 4.37822C11.2823 3.49046 10.5315 2.83255 9.61497 2.67428C8.69848 2.516 7.7705 2.884 7.21156 3.62736C7.03593 3.86093 6.68507 3.85996 6.51074 3.62541C5.95414 2.87651 5.02417 2.50356 4.10435 2.66037Z"/>
</mask>
<path fill-rule="evenodd" clip-rule="evenodd" d="M6.83146 2.67267L6.86303 2.70466L6.89478 2.67411C7.61981 1.99191 8.61889 1.6615 9.62074 1.79046L9.76385 1.81202C11.0038 2.02615 12.0196 2.91627 12.3947 4.11736C12.7698 5.31846 12.4411 6.62846 11.5434 7.5102L11.5169 7.53233L7.16973 11.8384C7.01472 11.9919 6.77359 12.0059 6.60293 11.8803L6.554 11.8384L2.18175 7.50813C1.277 6.62771 0.94321 5.31386 1.31804 4.10837C1.69287 2.90287 2.71282 2.00994 3.95729 1.79779C5.0103 1.61828 6.07313 1.95193 6.83146 2.67267ZM4.10435 2.66037C3.18452 2.81717 2.43065 3.47717 2.1536 4.36818C1.88974 5.21677 2.10095 6.138 2.69934 6.78595L2.79474 6.88375L6.86188 10.9122L10.929 6.88375L10.947 6.86793L11.0222 6.79076C11.6158 6.14222 11.8236 5.22371 11.5595 4.37822C11.2823 3.49046 10.5315 2.83255 9.61497 2.67428C8.69848 2.516 7.7705 2.884 7.21156 3.62736C7.03593 3.86093 6.68507 3.85996 6.51074 3.62541C5.95414 2.87651 5.02417 2.50356 4.10435 2.66037Z" fill="#212121"/>
<path d="M6.83146 2.67267L7.54322 1.97025L7.53197 1.95886L7.52037 1.94783L6.83146 2.67267ZM6.86303 2.70466L6.15127 3.40709L6.84485 4.10989L7.55638 3.42526L6.86303 2.70466ZM6.89478 2.67411L6.20947 1.94578L6.20143 1.95351L6.89478 2.67411ZM9.62074 1.79046L9.76971 0.80162L9.75907 0.800018L9.74841 0.798645L9.62074 1.79046ZM9.76385 1.81202L9.93402 0.826608L9.92344 0.82478L9.91282 0.823179L9.76385 1.81202ZM11.5434 7.5102L12.1834 8.27864L12.2149 8.25238L12.2442 8.22363L11.5434 7.5102ZM11.5169 7.53233L10.8769 6.76389L10.8438 6.79151L10.8131 6.82188L11.5169 7.53233ZM7.16973 11.8384L7.87341 12.5489L7.87347 12.5489L7.16973 11.8384ZM6.60293 11.8803L5.95278 12.6401L5.98064 12.6639L6.01018 12.6857L6.60293 11.8803ZM6.554 11.8384L5.85031 12.5489L5.87618 12.5746L5.90385 12.5982L6.554 11.8384ZM2.18175 7.50813L2.88547 6.79759L2.87915 6.79145L2.18175 7.50813ZM3.95729 1.79779L4.12533 2.78357L3.95729 1.79779ZM2.1536 4.36818L3.1085 4.66509L2.1536 4.36818ZM2.69934 6.78595L1.9647 7.4644L1.97397 7.47445L1.98352 7.48423L2.69934 6.78595ZM2.79474 6.88375L2.07892 7.58203L2.08492 7.58818L2.09103 7.59423L2.79474 6.88375ZM6.86188 10.9122L6.15816 11.6227L6.86188 12.3197L7.5656 11.6227L6.86188 10.9122ZM10.929 6.88375L10.2678 6.13358L10.246 6.15281L10.2253 6.17327L10.929 6.88375ZM10.947 6.86793L11.6082 7.61811L11.6365 7.59315L11.6629 7.56614L10.947 6.86793ZM11.0222 6.79076L11.7381 7.48897L11.7492 7.47761L11.7599 7.46591L11.0222 6.79076ZM11.5595 4.37822L12.5141 4.08012L11.5595 4.37822ZM7.21156 3.62736L8.01083 4.22834L7.21156 3.62736ZM6.51074 3.62541L5.70814 4.22193L6.51074 3.62541ZM6.1197 3.3751L6.15127 3.40709L7.57479 2.00224L7.54322 1.97025L6.1197 3.3751ZM7.55638 3.42526L7.58814 3.39471L6.20143 1.95351L6.16968 1.98407L7.55638 3.42526ZM7.58005 3.4024C8.08888 2.92363 8.79029 2.69182 9.49307 2.78228L9.74841 0.798645C8.44748 0.631189 7.15075 1.06019 6.20951 1.94582L7.58005 3.4024ZM9.47177 2.7793L9.61488 2.80086L9.91282 0.823179L9.76971 0.80162L9.47177 2.7793ZM9.59368 2.79744C10.464 2.94773 11.1769 3.57246 11.4402 4.41547L13.3492 3.81925C12.8623 2.26007 11.5437 1.10458 9.93402 0.826608L9.59368 2.79744ZM11.4402 4.41547C11.7035 5.25847 11.4728 6.17792 10.8427 6.79678L12.2442 8.22363C13.4095 7.07901 13.8362 5.37844 13.3492 3.81925L11.4402 4.41547ZM10.9035 6.74177L10.8769 6.76389L12.1568 8.30077L12.1834 8.27864L10.9035 6.74177ZM10.8131 6.82188L6.46598 11.128L7.87347 12.5489L12.2206 8.24278L10.8131 6.82188ZM6.46604 11.1279C6.66594 10.9299 6.97554 10.9129 7.19568 11.0749L6.01018 12.6857C6.57165 13.0989 7.3635 13.054 7.87341 12.5489L6.46604 11.1279ZM7.25308 11.1205L7.20415 11.0786L5.90385 12.5982L5.95278 12.6401L7.25308 11.1205ZM7.25769 11.1279L2.88544 6.79762L1.47806 8.21864L5.85031 12.5489L7.25769 11.1279ZM2.87915 6.79145C2.24414 6.17352 2.00987 5.25137 2.27294 4.40528L0.363134 3.81145C-0.123444 5.37635 0.309855 7.08191 1.48435 8.22481L2.87915 6.79145ZM2.27294 4.40528C2.53602 3.55919 3.25189 2.93247 4.12533 2.78357L3.78924 0.812015C2.17375 1.08741 0.849713 2.24656 0.363134 3.81145L2.27294 4.40528ZM4.12533 2.78357C4.86421 2.65761 5.61031 2.89166 6.14254 3.39751L7.52037 1.94783C6.53596 1.0122 5.15639 0.578954 3.78924 0.812015L4.12533 2.78357ZM3.9363 1.67459C2.64545 1.89464 1.58749 2.82085 1.19869 4.07127L3.1085 4.66509C3.2738 4.13348 3.72359 3.7397 4.27239 3.64615L3.9363 1.67459ZM1.19869 4.07127C0.828391 5.26221 1.12481 6.55496 1.9647 7.4644L3.43398 6.1075C3.07709 5.72105 2.9511 5.17133 3.1085 4.66509L1.19869 4.07127ZM1.98352 7.48423L2.07892 7.58203L3.51057 6.18547L3.41517 6.08767L1.98352 7.48423ZM2.09103 7.59423L6.15816 11.6227L7.5656 10.2017L3.49846 6.17327L2.09103 7.59423ZM7.5656 11.6227L11.6327 7.59423L10.2253 6.17327L6.15816 10.2017L7.5656 11.6227ZM11.5903 7.63392L11.6082 7.61811L10.2857 6.11776L10.2678 6.13358L11.5903 7.63392ZM11.6629 7.56614L11.7381 7.48897L10.3063 6.09255L10.2311 6.16972L11.6629 7.56614ZM11.7599 7.46591C12.593 6.55563 12.8846 5.26671 12.5141 4.08012L10.605 4.67633C10.7625 5.18072 10.6386 5.72881 10.2845 6.11561L11.7599 7.46591ZM12.5141 4.08012C12.125 2.83426 11.0713 1.91097 9.78514 1.68886L9.44479 3.65969C9.9916 3.75412 10.4396 4.14666 10.605 4.67633L12.5141 4.08012ZM9.78514 1.68886C8.49898 1.46675 7.19669 1.98318 6.41229 3.02638L8.01083 4.22834C8.34431 3.78482 8.89798 3.56526 9.44479 3.65969L9.78514 1.68886ZM6.41229 3.02638C6.6381 2.72607 7.08921 2.72733 7.31334 3.02889L5.70814 4.22193C6.28092 4.99259 7.43376 4.99579 8.01083 4.22834L6.41229 3.02638ZM7.31334 3.02889C6.53222 1.97791 5.22714 1.45453 3.9363 1.67459L4.27239 3.64615C4.8212 3.55259 5.37605 3.7751 5.70814 4.22193L7.31334 3.02889Z" fill="#212121" mask="url(#path-1-inside-1_10043_666)"/>
</svg>
