<svg width="16" height="16" viewBox="0 0 16 16" fill="none" xmlns="http://www.w3.org/2000/svg">
<path fill-rule="evenodd" clip-rule="evenodd" d="M8.51143 3.11284C8.47725 2.86092 8.26131 2.66675 8.00001 2.66675C7.71496 2.66675 7.48388 2.89783 7.48388 3.18288V7.4837H3.18282L3.11278 7.48841C2.86086 7.52259 2.66669 7.73853 2.66669 7.99983C2.66669 8.28488 2.89777 8.51596 3.18282 8.51596H7.48388V12.8173L7.48859 12.8873C7.52277 13.1392 7.73872 13.3334 8.00001 13.3334C8.28506 13.3334 8.51614 13.1023 8.51614 12.8173V8.51596H12.8172L12.8873 8.51125C13.1392 8.47707 13.3334 8.26113 13.3334 7.99983C13.3334 7.71478 13.1023 7.4837 12.8172 7.4837H8.51614V3.18288L8.51143 3.11284Z" fill="#212121"/>
</svg>
