<svg width="14" height="14" viewBox="0 0 14 14" fill="none" xmlns="http://www.w3.org/2000/svg">
<path d="M3.06246 6.41671C2.82084 6.41671 2.62496 6.61258 2.62496 6.85421C2.62496 7.0757 2.78955 7.25874 3.00309 7.28771L3.06246 7.29171H11.2291C11.4708 7.29171 11.6666 7.09583 11.6666 6.85421C11.6666 6.63272 11.502 6.44967 11.2885 6.4207L11.2291 6.41671H3.06246Z" fill="#212121"/>
<path d="M11.5385 6.54485C11.3832 6.38953 11.1401 6.37541 10.9688 6.50249L10.9198 6.54485L8.58643 8.87818C8.41558 9.04904 8.41558 9.32605 8.58643 9.4969C8.74176 9.65222 8.98481 9.66634 9.15608 9.53926L9.20515 9.4969L11.5385 7.16357C11.7093 6.99271 11.7093 6.7157 11.5385 6.54485Z" fill="#212121"/>
<path d="M9.20515 4.21151C9.0343 4.04066 8.75729 4.04066 8.58643 4.21151C8.43111 4.36684 8.41699 4.60989 8.54407 4.78116L8.58643 4.83023L10.9198 7.16357C11.0906 7.33442 11.3676 7.33442 11.5385 7.16357C11.6938 7.00824 11.7079 6.76519 11.5808 6.59392L11.5385 6.54485L9.20515 4.21151Z" fill="#212121"/>
</svg>
